<?xml version="1.0" encoding="utf-8"?>
<!-- Generator: Adobe Illustrator 27.2.0, SVG Export Plug-In . SVG Version: 6.00 Build 0)  -->
<svg version="1.1" id="Layer_1" xmlns="http://www.w3.org/2000/svg" xmlns:xlink="http://www.w3.org/1999/xlink" x="0px" y="0px"
	 viewBox="0 0 504 216" style="enable-background:new 0 0 504 216;" xml:space="preserve">
<style type="text/css">
	.st0{opacity:0.6;fill:#E8E8E8;enable-background:new    ;}
</style>
<path className="st0" d="M67.2,58.6c0.9,0,1,0.2,1.8,0c0.8-0.2,3.1-1.3,3.9-1.5c0.8-0.1,1.3,0,0.1,0.5c-1.2,0.5-3.5,1.4-3.1,1.4
	c0.4-0.1,1.6-0.4,3.3-1c1.7-0.6,1.5-0.3,1.9-0.9s0.7-0.9,0.7-0.9s2.6,1.9,2.9,2c0.2,0.1,0.3,0,0.5-0.2c0.1-0.2,0.4-0.6,0.8-0.5
	s0.1,0.6,0.3,0.6c0.2,0.1,0.6,0,1.3-0.2c0.7-0.2,0.3-0.5,0.3-0.5s-0.1,0,0.7-0.1c0.8,0,3.3,0.6,4.1,0.8c0.7,0.2,3,0.4,3.7,0.5
	c0.6,0.1,0.9-0.3,1.8,0.1c0.9,0.3,1.5,0.8,0.9,1c-0.7,0.2-2.3,0.4-1.5,0.6c0.8,0.1,2.1,0.3,3.3,0.3c1.2,0,3.4-0.3,4.1-0.3
	c0.7,0,1.1,0.3,1.7,1c0.6,0.8,1.1,1,1.4,1.1c0.2,0.1-0.2-0.4-0.1-0.7c0.1-0.4-0.1-1.1-0.3-1.3c-0.1-0.2,0-0.4-0.3-0.7
	c-0.3-0.4-0.8-0.3,0.1-0.6c0.9-0.3,1.5-0.8,2.6-0.7c1.1,0.1,1.4,1.1,2.3,1.1c0.9,0.1,1.1,0.3,2.7,0.4c1.6,0.1,0.9,0,2.7,0.1
	c1.8,0.1,1.1-0.1,1.5-0.8s0.8-0.8,1.2-0.8s2,0.2,2,0.3c0,0.1-0.6,0.8-0.3,1.2c0.3,0.3,1.6,0.9,1.6,0.9s-0.3-0.8-0.3-0.9
	c0-0.1-0.1-0.7,0.1-0.8c0.2-0.1,1.3,0.1,1.9-0.9c0.7-0.9-0.4-0.9-0.4-0.9s-0.4,0-0.2-0.4c0.2-0.4,1.4-0.6,1.4-0.6s0.1,0.2-0.1-0.1
	c-0.1-0.3-0.9-0.2-1.8-0.3c-0.8,0-1.4-0.1-1.6-0.6c-0.1-0.5-0.2-1.6-0.2-2.3c0-0.7,0.8-0.5,1-0.9c0.1-0.4,0-2.4-0.2-2.8
	c-0.2-0.4,0.3-1.3,0.4-1.9c0.1-0.6,0.9-0.3,0.9-0.3c-0.1-0.2,0.2-0.8,1.4-1c1.1-0.2,3.3,0,3.3,0s-0.2,0-0.7,0.5
	c-0.5,0.5-0.2,1.3-1,1.9c-0.8,0.6-2.8,0.4-2.8,0.4s0.6,1,0.4,1.3c-0.3,0.3-0.4,1-0.4,1s1.8,0.3,1.9,1.1c0.1,0.8,1,0.9,1.2,1.7
	c0.2,0.7-0.9,1.3-0.6,1.4c0.2,0.1,0.3,0.2,0.9,0.2c0.6,0,1.5,0.1,1.5,0.1s-0.4,0.4,0,0.8c0.3,0.4,0.1,0.6,0.1,1.1
	c0,0.4,0.4,0.8,0.5,0.7c0.1-0.1,0.8-1.1,1-1.6s0.3-0.7,0.6-0.7c0.3,0,1.3,0.7,1.4,0.9c0.1,0.2,0.2,0.6-0.4,1.2
	c-0.6,0.6-0.5,0.9,0,1.2c0.5,0.2,0.5,0.2,1.4,0.5c0.9,0.3,0.7,0.3,1.3,0.2c0.5-0.1-0.2-1.1-0.2-1.1c0.1,0,1.3-0.1,1-0.6
	c-0.3-0.5-0.6-0.7,0-1c0.6-0.2,1-0.4,1-0.4c-0.2-0.3-0.3-0.3-0.7-1.2c-0.4-0.8,0.4-0.6,2-0.5c1.6,0.1,1.7,0.5,2.5,0.8
	c0.9,0.3,0.3,0.4,0.6,0.9c0.3,0.5-0.7,0.6-0.7,0.6s-0.7,0.1-0.5,0.5c0.1,0.4,0.4,0.8,0.9,1.4s-0.1,1-0.9,1.5
	c-0.7,0.5-1.6,0.6-2.5,0.6s-1.2,0.3-1.3,0.1c-0.1-0.2-0.5-0.3-0.9-0.3c-0.5,0.1-1.5,0.4-1.2,0.5c0.4,0.1,1.4,0.1,1,0.6
	c-0.4,0.5-0.8,0.5-1.6,0.5c-0.8-0.1-1.6-0.1-2.1-0.1c-0.5,0-3.1-0.1-3.1-0.1s1.7,0.8,3.1,1.1c1.4,0.3,2.8,0.1,2.8,0.1
	s-0.6,0.7-1.2,1.5c-0.7,0.8-1.3,0.4-1.9,0.5c-0.6,0-0.9,0.4-2,0.5c-1.1,0.1-3.2-0.2-2.9-0.1c0.3,0.1,0.5,0.3,1.1,0.4s1,0.1,1.5,0.4
	c0.5,0.3-0.3,0.4-1,0.5c-0.7,0.1-0.9,0.2-1.2,0.5c-0.3,0.3-1.5,1.5-1.9,1.9c-0.4,0.4-0.7,1-0.9,1.7s-1,1.6-0.6,1.8
	c0.4,0.2,1.9,0.2,2.5,0.5c0.6,0.3,1.3,1.6,1.8,2.1c0.5,0.5,0.8,0.9,1.4,0.5s1.6-0.3,2.5,0c1,0.2,3,1.2,3.6,1.7
	c0.6,0.4,1.7,0.4,2.9,0.5s1.4,0.4,1.4,0.4s1.3,0,0.7,0.4c-0.5,0.4-0.7,0-0.1,0.7c0.5,0.6,0.5,1.5,0.4,1.9c-0.1,0.4,1.7,0.2,2.5,0.5
	c0.8,0.3,0.8,1.6,1.2,1.5c0.4-0.2,1-0.4,1.1-0.8c0.1-0.3,0-0.8-0.1-1.4c-0.1-0.6-0.3-1.7-0.7-2.1s0.7-0.6,0.6-0.8
	c-0.2-0.2-0.1-0.6,0.6-0.7c0.8-0.1,0.8,0,1.3-0.2c0.4-0.2,0.5-1.3,0.6-1.7c0.1-0.4-0.1-1.2-0.3-1.6c-0.2-0.3-1-1.3-1.2-1.6
	c-0.3-0.2-0.6-0.3,0.1-1c0.8-0.7,0.3-0.5,0.2-0.8c-0.1-0.2-0.3-0.7-0.4-1.2c-0.1-0.5,0.3-1,0-1.7c-0.3-0.7-0.6-0.5-0.5-0.7
	c0.1-0.1,1.8-0.1,3.1,0c1.3,0.1,1.8-0.1,2.2-0.1s1.1,0.3,1.8,0.6c0.7,0.3,1,0.2,1.4,0.7c0.4,0.4,0.6,0.6,1.3,0.6
	c0.8,0,1.6,0.2,1.6,0.2s-0.5,0.2-0.4,0.9c0.1,0.7-0.1,1.3-0.1,1.6s0.2,0.3,0.6,0.3c0.4,0,1.3,0.6,2.3,0.9c1,0.2,1.3,0.2,1.6-0.4
	c0.3-0.6,0.4-0.5,0.8-0.6c0.4,0,0.5,0.1,0.7-0.1c0.2-0.1-0.3-0.4-0.2-0.8c0.1-0.4,0.7-0.9,1.1-1.2c0.4-0.3,0.8,0.3,1.2,0.8
	c0.4,0.5,1.8,2.3,2.2,2.9c0.4,0.6,0.9,0.6,0.4,1.2c-0.5,0.5-0.7,0.8,0,1c0.7,0.2,1.4,0.7,1.3,1.1c-0.1,0.4-0.2,0.4,0,0.5
	c0.2,0.1,1.1-0.2,1.8,0c0.6,0.2,1.4,0.4,1.9,0.7c0.4,0.3,0.4,0.4-0.2,0.6c-0.6,0.2-1.3,0.3-1.6,0.5c-0.3,0.1-0.8,0.4-0.8,0.6
	c0,0.2-0.1,0.6,0.4,0.3c0.5-0.3,1.3-0.5,1.9-0.7c0.6-0.1,0.1,0,0.7-0.1c0.5,0,1.1,0.2,1.8,0.3c0.7,0.1,0.5,0.5,0.4,0.8
	c-0.2,0.3-0.4,0.6-0.1,0.9c0.3,0.3-0.1,0.7-0.8,1.1c-0.7,0.4-1.1,0.5-2.2,0.6c-1.1,0.1-1.6,0.6-2.3,1c-0.7,0.5-1.1,0.4-2.2,0.4
	s-0.7-0.4-1-0.3c-0.3,0.1-0.8,0.3-1.5,0.4c-0.7,0-3,0.1-3.9,0.3s-0.6,0.6-0.8,1c-0.2,0.4-0.6,0.2-1.3,0.4c-0.7,0.2-1.5,0.9-2.3,1.8
	c-0.8,1-1.9,1.6-1.9,1.6c0.2,0,1.3-0.5,1.9-1c0.5-0.5,2.8-1.6,3.5-1.9c0.7-0.3,2.2-0.9,2.5-0.8c0.4,0.1,1.2,0.6,1.2,0.8
	c0,0.2-0.3,0.4-0.9,0.9c-0.6,0.4-1.5,0-1.4,0.2c0.1,0.2,0.5,0.6,1,0.7c0.5,0.1,0.5,0.5,0.5,0.7c0,0.2-0.3,0.5,0.8,1.1
	c1.1,0.7,1.9,0.7,2.7,0.7c0.8,0,0.4,0.2,0.7,0.2c0.3,0,0.4-0.5,0.5-0.9c0.1-0.4,0.3-0.7,0.6-0.9c0.3-0.2,0.5-0.5,0.6,0.1
	c0.1,0.6-0.3,1.3-0.8,1.5c-0.4,0.2-0.3,0.4-0.3,0.6s-0.5,0.2-1.7,0.6s-1.5,0.6-1.7,0.5c-0.2-0.1-0.6,0.1-1.2,0.4
	c-0.6,0.4-1.2,0.8-1.6,0.8c-0.4,0-0.8-0.1-0.2-0.5c0.6-0.4,0.7-1,1.3-1.2c0.6-0.2,0.8-0.2,1.3-0.2c0.5,0,0.2-0.2,0.6-0.4
	c0.4-0.2-0.3-0.1-0.9-0.2c-0.6-0.1-0.1-0.5-0.1-0.5l-0.7,0.2c0,0-1,0.4-1.3,0.4c-0.3,0-0.2,0.1-0.3,0.2c-0.1,0.1-1,0.1-1,0.1
	s-0.5,0.7-1.2,0.8c-0.7,0.1-0.2,0.1-0.7,0.2c-0.5,0.2-0.4-0.2-0.5-0.1c-0.1,0.1-0.2,0.2-0.8,0.5s-0.9,0.4-1.3,1.5
	c-0.4,1.1,0.1,1.5,0.1,1.7c0,0.2-0.7-0.1-0.9,0c-0.2,0.1-0.7,0.6-1.3,0.7c-0.6,0.1-1.8,0.3-2.1,0.6c-0.3,0.2-0.3,0.5-0.4,0.9
	c-0.1,0.4-0.9,1.4-0.9,1.4s0.2-0.4-0.3-0.7c-0.5-0.3-0.4-0.6-0.4-0.6s-0.1,0.4,0.1,0.8c0.2,0.4,0.6,0.8,0.4,1.3s-0.5,1-0.9,1.2
	c-0.4,0.2,0.1-0.3,0.1-0.7s-0.3-0.4-0.4-0.6c-0.2-0.2-0.2-0.7,0.1-1.3s-0.3-0.2-0.6,0.2s-0.6,1.2-0.1,1.7c0.5,0.5-0.3,0.5,0,1.2
	c0.4,0.7-0.4,1.1-0.3,1.2c0.1,0.1,0.6,0,0.7,0.3c0.2,0.4-0.4,0.2-0.6,0.3c-0.2,0.1-0.1,0.2,0,0.4c0.1,0.2,0.3,0.1,0.2,0.1
	c-0.1,0.1-0.4,0.3-0.8,0.4c-0.5,0.1-0.5-0.1-0.8,0.2c-0.3,0.2-0.5,0.5-0.8,0.8c-0.3,0.3-0.5,0.2-0.9,0.4c-0.3,0.2-0.5,0.4-0.9,0.6
	c-0.4,0.2-1.3,0.6-1.9,1.1c-0.5,0.5-0.4,0.6-0.6,1.4c-0.2,0.8,0.6,2.1,1.2,3.4c0.5,1.3,0.8,0.9,0.7,1.3c-0.1,0.4-0.3,0.9-0.7,1.2
	c-0.4,0.3-0.6-0.2-1.2-0.5c-0.5-0.3-0.1-0.5-0.6-1.1c-0.5-0.6-0.5-0.8-0.5-1.2c-0.1-0.4-0.1-1-0.4-1.5c-0.3-0.5-0.9-1.1-1.8-0.8
	c-0.9,0.2-0.7,0.1-1.2,0c-0.5-0.1-1.8-0.5-2.4-0.2c-0.7,0.2-2.7-0.1-3.2,0c-0.4,0.1-0.7,0.1-0.7,0.3c0,0.2-0.2,0.2,0.6,0.4
	c0.8,0.1,0.7,0.3,0.6,0.5c-0.1,0.2-0.6-0.1-0.9-0.2c-0.3-0.1-0.6,0.2-1.1,0.2s-0.6-0.4-1.1-0.4s-0.7,0-1.1-0.1
	c-0.4-0.1-1-0.3-1.6-0.3c-0.5,0-2.5,1-3.5,1.5c-0.9,0.5-1.7,1-1.9,1.4c-0.2,0.4-0.2,0.4,0.5,1c0.8,0.6,0.4,0.5,0.3,0.9
	c-0.1,0.3-0.6,0.8-1.1,1.7c-0.5,0.9-0.2,1.3,0.4,2.2c0.7,0.9,1.2,1.5,1.8,1.8s0.9,0.7,1.4,0.9c0.4,0.1,0.5,0.2,0.7,0.3
	c0.2,0.1,0.1,0.2,0.9,0.1c0.7-0.1,1.2-0.3,1.7-0.3s1,0,1.3,0.2c0.3,0.2,0.3,0.1,0.3,0c0-0.1,0.2-0.5,0.3-0.6
	c0.1-0.1,0.7-0.8,0.9-1.1c0.1-0.4,0.1-1.1,0.8-1.2c0.7,0,2.1-0.3,3.3-0.2c1.3,0.1,0.7,0.5,0.4,1c-0.3,0.5-0.5,0.5-0.5,0.9
	s0.1,0.4-0.3,0.6c-0.4,0.2-0.1-0.1-0.3,0.1c-0.2,0.2-0.8,0.5-0.7,0.5s0.3,0.4,0.3,0.6c0,0.2-0.1,0.3-0.1,0.8c0,0.5-1.3,1-1.3,1
	s0.5,0.2,1.2,0.2c0.7,0,1.6,0,2.3,0.2s2.2-0.2,3.2,0.2c1,0.4,0.7,0.6,0.7,0.9c0.1,0.3,0.2,1.5,0.1,1.8c-0.1,0.3-0.6,1-0.8,1.6
	s0.7,0.9,1.7,1.4c0.9,0.4,1.8,0.6,2.3,0.7c0.5,0.1,1.4-0.5,3-0.4c1.6,0.1,2.2,1.1,2.2,1.1s0.2-0.6,0.9-1.5c0.7-0.8,0.8-1.1,1.8-1.4
	c1-0.3,1.4-0.3,3-0.7c1.7-0.4,1.3-0.1,2.2,0c0.9,0,2.8,0.2,4.8,0.6s5,0.5,6.2,0.9s1.7,1.3,2.9,2.1c1.2,0.8,2.7,1.5,3.3,1.9
	c0.6,0.4,4.2,0.7,5,0.9c0.8,0.2,1.9,1.1,2,1.7s0.9,0.8,2,1.1c1.1,0.3,1.4,0.7,2.1,1.7c0.7,1,0.5,1.3,1.5,1.5c1,0.2,7.7,1.5,9.4,2
	c1.7,0.5,3.8,1.7,4.4,1.9c0.6,0.1,1.6-0.1,2,0c0.4,0.2-0.3,1.1,0.3,1.8c0.6,0.7,0.6,0.7,0.3,1.2c-0.3,0.5-1.7,1.7-2.2,2.3
	c-0.5,0.6-1.7,1-2.3,1.2c-0.6,0.2-1.2,0-0.6,0.5s0,0.9-0.4,1.4c-0.5,0.4,0,0.4-0.1,1.8c-0.1,1.4,0,3-0.2,3.6c-0.2,0.6-1.5-0.5-3,0.8
	c-1.5,1.3-1.9,2.4-2.8,2.5c-0.9,0.1-3,0.9-3.7,1.4c-0.7,0.5-0.9,0.6-1.3,1.3c-0.4,0.7-0.9,2.1-1.4,3c-0.5,0.9-1.3,1.4-3.1,2.5
	c-1.8,1.2-2.6,2.4-3.8,3.3c-1.2,0.9-0.9,0.7-1.1,0.9c-0.6,0.4-3.2-0.7-2.5-0.1c0.5,0.5-0.3,0,0.1,0.4c0.4,0.4,0.7,0.6-0.2,1.4
	c-0.9,0.8-1.9,0.6-2.6,0.8c-0.7,0.1-1.8-0.5-1.8-0.2c-0.1,0.3-0.5,1.1-1,1.3c-0.6,0.2-2.1,0.5-2,0.6c0.7,2.3,2.2,2.6,0.6,2.5
	c-4.2-0.3-1.2-1-4.1,3.4c-0.4,0.7-0.9,0.3-0.8,1.1c0.1,0.8,0,1.4,0.6,1.9c0.6,0.5,0.2,0.5-0.8,1.1c-1,0.7-1.1,0.6-2,1.6
	c-0.9,1-1.8,1-1.5,1.7c0.3,0.8,0.4,1.9,1,3c0.6,1.1,1.7,0.9,3.6,1.7c1.8,0.8,2.1,0.4,3,0.6c0.9,0.2-0.6,0.2-2.3,0.4
	c-1.6,0.2-2.7,0.4-3.8,0.2c-1.1-0.2-3.8-1.3-4.7-1.7c-0.9-0.5-2.4-1.3-2.9-2.1c-0.5-0.8-0.9-1.6-1.6-2.8c-0.7-1.1-0.2-1.8,0.1-4.3
	c0.3-2.5,0.5-4.4,1-5.7s2-7.2,2.4-8.7c0.4-1.5,2.3-7.6,2.5-8.6c0.1-1,0.3-1.7,0.6-2.7s0.1-2.9,0.1-3c0-0.1-0.1-0.2-0.5-1.1
	c-0.4-0.9-1.1-1.3-2-1.7c-0.9-0.4-1.9-0.9-2.7-1.3c-0.7-0.4-1.7-0.9-2.4-1.6c-0.7-0.7-1.5-2-1.8-2.6c-0.4-0.6-1.8-2.5-3-3.8
	c-1.3-1.3-1.3-1.4-2-2.8c-0.6-1.4,0.6-1.4,0.8-2.2c0.2-0.8,1-1.6,1.8-2.7c0.8-1.1,1.9-1.4,2.5-2.4c0.6-1,0.1-1-0.1-2
	c-0.2-1,0.1-0.8-0.3-1.3c-0.4-0.5-0.6-1.2-1-1.3c-0.4-0.2-0.9-0.3-1.3,0c-0.3,0.3-0.9,1.1-1.3,1.1c-0.4,0-0.5-0.2-0.7-0.4
	c-0.2-0.2-1.3-0.2-1.5-0.3c-0.2-0.2-0.8-0.2-1.2-0.3c-0.4-0.1-1.8-0.7-2.3-0.9c-0.4-0.2-0.9-0.8-0.9-1.5c0-0.6-0.8-0.9-2.5-1.8
	s-2.5-1-4.6-1.4s-3-1.4-3.7-1.7c-0.7-0.3-0.6-0.6-2.2-0.5c-1.6,0.1-3.5-0.5-4.7-0.8c-1.2-0.3-3.3-0.6-4.2-1
	c-0.9-0.4-2.5-0.6-3.1-1.6c-0.7-1-0.6-0.6-0.3-1.5c0.3-0.9-1.5-1.6-2.6-2.5c-1.1-0.8-1.9-1-2.5-2c-0.6-1-1.4-1-2.5-1.7
	c-1.1-0.7-1.1-1.7-1.6-2.5c-0.4-0.8-3.4-2.1-3.4-2.1s0.8,1.4,1.1,2c0.3,0.6,1.1,1.9,2,2.9c0.9,1,1.7,1.3,2.5,2.3
	c0.8,1,0,1.6-0.3,1.2c-0.3-0.4-1.5-0.6-1.5-1c0-0.5-0.3-0.8-0.6-1.1c-0.3-0.4-1.4-0.8-2.5-1.4c-1.1-0.6-1.9-0.9-1.2-0.9
	s1.7,0.5,1.5,0.2c-0.2-0.3-1.5-1.2-2.1-1.9c-0.6-0.6-0.8-1.4-1.4-2.5c-0.6-1.1-2.8-2.1-3.9-2.2c-1.1-0.1-1.4-0.4-1.8-1.2
	c-0.4-0.8-0.4-1.6-0.9-2.3c-0.5-0.6-2.6-2.7-2.6-3.5c0-0.8-0.6-3.1,0.1-4.4c0.7-1.3,0.6-4.2,0.4-4.7c-0.1-0.6-1.5-1.7-1.5-2.1
	c0-0.4,0.8-0.2,1.4,0c0.6,0.1,1.9,0.5,1.9,0.5s-1-1.3-1.6-1.7c-0.6-0.4-2.4-1-3.1-1.1s-1.8-0.3-2.2-0.8c-0.4-0.5-0.9-1.1-1.2-1.5
	c-0.3-0.4-1.6-0.9-1.9-1.3c-0.3-0.4-0.2-1.2-0.6-1.7c-0.4-0.4-1-0.7-1.7-0.5c-0.7,0.2-0.9-0.2-1.4-0.9c-0.5-0.6-1.7-0.9-2-1
	c-0.3-0.1-1.5-1.2-1.6-1.4c-0.1-0.3-1.9-1.7-2.5-2c-0.6-0.3-6.4-1.6-6.6-1.6c-0.1,0-1.8,0.2-2.3,0.1s-2-1-2.8-1.2s-1.4,0.2-1.7,0.8
	c-0.4,0.6-2.2,1.7-3.2,2.2c-1,0.5-1.8,0.5-1.8,0.3c0.1-0.2,0-0.6,0.4-1.2c0.3-0.6,0.5-0.8,1.6-1.1C48,73,48,73,47.6,73
	c-0.4,0-0.7,0,0.1-0.4c0.8-0.3,1.2-0.4,1.1-0.7c0-0.3-1.8,0.4-2.9,1c-1.1,0.6-1.8,1.1-2.8,2.2c-1,1.1,0.1,0.7-0.7,1.5
	c-0.8,0.7-3.6,2.3-4.5,2.8c-0.8,0.6-4.2,1.8-5.6,2.1c-1.4,0.3-2,0.4-2.6,0.8c-0.7,0.4-2.4,0.5-1.8,0.2c0.6-0.3,1.6-0.9,2.3-1.2
	c0.7-0.3,2.6-0.8,3.2-1c0.6-0.1,2.1-0.8,2.9-1.5s1.3-1.3,1.8-1.9c0.5-0.6,0.6-0.9-0.4-0.6s-2.2,0.1-2.8,0c-0.6-0.1-2,0.5-2.5,0.2
	c-0.5-0.3,0-0.8-0.3-1.1c-0.3-0.3-1.5-0.1-2.3-0.2c-0.7-0.1-1.8-0.5-1.8-1.3s-0.7-1.4-0.3-2c0.4-0.6,1-0.7,1.7-1
	c0.7-0.3,2.5-0.7,2.9-0.7s0.9-0.3,1.2-0.5c0.3-0.2-0.8-1.1-0.8-1.1s0.2-0.1,0.6-0.3c0.4-0.2,0.1-0.6-0.7-0.5
	c-0.8,0.1-2.5,0.6-3.5,0.8c-1,0.2-2.5,0.1-2.4-0.2c0-0.3,0.3-0.5-0.1-0.8c-0.4-0.2-0.7-0.5-0.3-0.6c0.4-0.1,2.7-1,2.7-1
	s0.8,0.6,1.7,0.7c0.9,0.1,2.8-1.1,2.8-1.1c-1.3-0.5-1-0.6-1-0.6s-2,0-2.4-0.2c-0.4-0.2-0.6-0.6-0.7-0.9c-0.1-0.3-2-0.6-1.5-1.2
	c0.5-0.6,1.5-0.8,2.1-1.3c0.6-0.6,1.2-1.6,3-2.2c1.8-0.6,4-1.1,5-1.6c1-0.5,1.4,0,1.8,0c0.4,0.1,2.7-0.1,3.6-0.1
	c0.9,0,1,0.7,1.4,0.9c0.3,0.2,8.2,0.3,8.2,0.3s6.7,0.1,8.1,0.3s3.8,1,3.8,1C66.4,59.9,66.3,58.6,67.2,58.6z M157.3,29.9
	c0,0-0.7,2-3.4,2.5c-2.7,0.5-7.6,2.1-7.9,2.2c-0.2,0.1,0.3,1.2,1,1.7c0.7,0.5,1.3,0.9,1.9,1.5s1.7,0.5,2.5,1.1
	c0.8,0.6,1.4,0.4,3.7,0.4c2.3,0,1.7,0.1,4.2,0.2s5.1,0.2,6,0.8c0.9,0.5,2.1,2.7,2.9,4c0.8,1.3,2.2,3.4,2.2,3.6c0,0.2-0.9,1.8-0.9,2
	s0.4,0.7,0.9,1c0.4,0.3,0.2,0.6,0.1,0.9c-0.1,0.3,0.4,1.1,0.5,1.2s1.2-0.8,1.9-0.9c0.7-0.1,2.5,0.9,2.5,1.6c0,1.6,0.6,1.1-3.1,3
	c-0.5,0.3-1,2.2-0.6,3.1s1.3,2.1,2,3.4c0.7,1.3,2.8,3.2,3.5,4.1s0.9,2.1,2.4,2.3c1.5,0.3,2.9,0.6,4,0.8c1.1,0.2,1.8,0.4,2.3-0.3
	c0.5-0.7,1.6-3.4,2.4-5.4c0.9-2-0.1-2.6,2-3c2-0.4,5.2-1.3,6.1-1.6c0.9-0.3,0.7-2.2,2.6-2.9c1.9-0.6,2.2-0.6,4-1
	c1.9-0.4,4.5-1.3,6.4-2.2c1.9-0.9,2.4-0.4,3.1-1.3c0.7-0.9-0.7-2.1-0.8-3.4c-0.1-1.3,0.6-1.4,1-2.5c0.4-1.2,0.6-1.9,2-2.7
	c1.5-0.8,2.3-1.2,2-2s-1-1.9-1-2.7c0-0.8,0.3-0.3-0.3-1.5c-0.6-1.1-0.6-1.3,0-2.4c0.6-1.1,2.1-0.8,2-1.3c-0.1-0.5-2.4-1.2-2.4-2.5
	c0-1.3,0.4-1.7,0.8-2c0.4-0.3,4.2-2.5,4.5-2.7c0.3-0.2-0.1-0.7,1.8-1.4s2.5-1.1,3.2-1.3c0.7-0.2,1.8-0.2-0.3-0.6s-2.7-0.6-4.1-0.5
	c-1.4,0.1-1.9,0.7-4.5,0.9s-5.4,1-5.4,1s0.9-0.5,0.1-1.1c-0.7-0.5,2-2.2,2.4-2.4c0.4-0.2-3.5-0.9-5.6-1.2c-2.1-0.3-6.1-1.1-8.4-1
	c-2.3,0.1-5.7,0.1-6.9,0.4c-1.2,0.3-1,1.3-2.3,1.4c-1.3,0-3.7-0.5-5.6-0.3c-1.9,0.2-4.9,1.1-5.2,1.2c-0.3,0,1.2,0.7,2.1,0.8
	s2.3,1.6,2.3,1.6s-2.6-0.6-5.3-1.1c-2.7-0.5-5.8,0-6.9,0.2c-1.1,0.2-2.5,0.6-4.7,0.7c-2.2,0.1-4.6,1.3-5.9,1.9
	c-1.2,0.6-5.1,2.2-6.1,2.6c-1,0.4-0.6,0.5,0.4,0.7C156.1,29.8,157.3,29.9,157.3,29.9z M101.7,50.4c0.3,0.9,0.3,2.2-0.4,1.7
	c-0.7-0.6-1.3-1.7-2.4-1.2c-1.1,0.5-2.3,0.3-2.1,0.2c0.2-0.1,0-0.6-0.6-0.7c-0.6-0.1-0.9,0.1-1.5,0.3c-0.6,0.2-2.5,0.6-1.7,0.1
	c0.8-0.4,0.5-0.7,0.2-1.2c-0.3-0.5-2.3,0.3-3.3,0.9c-1,0.5-1.7,1.3-2.3,1.9c-0.6,0.5-0.2,0.9,0.8,1.1c0.9,0.2,2.5,0.3,1.2,0.7
	c-1.3,0.3-2.3,0.6-1.6,0.8c0.7,0.3,1.8,0.3,2.9,0.2c1.1-0.1,2.1-0.3,3.9,0s2.9,0.3,2.9,0.3s-0.7,0.3-1.9,0.4c-1.2,0.1-3.4,0-4.5,0.1
	c-1.1,0.1-2.9,0.4-2.4,0.7c0.4,0.3,0.8,0.8,2.3,1.1c1.5,0.3,1.8,0,2.8,0.2c0.9,0.2,0.4,0.9,0.7,1c0.2,0.1,2-0.1,3.7-0.3
	c1.7-0.2,1.1-0.4,2.5-0.7c1.4-0.2,1.4-1,2.2-1.2c0.8-0.2,0.2,0.4,1.2,0.5c0.9,0.2,0.4,0.2,1.5,0.3c1,0.1,0.8,0.4,1.8,0.3
	c1,0,2.2-0.5,2-0.6c-0.1-0.1-0.3-0.3-0.2-0.6c0.1-0.3-1,0.1-1.4,0.2c-0.4,0.2-0.4-0.4,0.5-0.7c0.9-0.3,1.6,0,2.1,0
	c0.5,0,0.1-1-0.9-1.2c-0.9-0.2-1.3-0.6-2.6-1.1c-1.3-0.5-0.7-0.8-1-1.5c-0.4-0.7-1.2-2.7-2-3.1c-0.7-0.4-1.5-0.3-2.3-0.6
	C101.6,49,101.4,49.5,101.7,50.4z M81,49c0.3,0.7,0.4,0.2-0.3,1c-0.7,0.7-0.3,1-0.7,1.5c-0.4,0.5-1.6,1.3-1.3,1.6
	c0.4,0.4,1.6,0.6,2.1,0.9c0.5,0.3,1,0.9,1.9,0.6c0.9-0.2,1.2-0.4,1.8-0.6s1.2-0.5,1.1-1.1c0-0.6-0.1-0.9,0.2-0.8
	c0.2,0,0.7,0.3,0.8-0.1c0.2-0.4,0.6-0.9,1-1.2c0.4-0.3,1.6-0.6,2.2-0.9c0.6-0.3,1.5-0.7,1.8-1c0.3-0.3-0.5-0.5-1-0.7
	c-0.5-0.1-1-0.7-2.1-0.7S86.9,48.2,87,48c0.1-0.3-0.7-0.4-1.2-0.5c-0.4-0.1-0.9-0.3-2.3-0.2c-1.4,0.1-2,0.2-3.1,0.4
	C79.4,47.9,80.7,48.3,81,49z M113.5,56.9c-0.1,0.1-0.8,0.3-1.2,0.6c-0.4,0.3,0.9,0.1,1.2,0.2c0.4,0.1,0.7,0.4,1,0.5
	c0.3,0.1,2.1,0.1,2.8-0.1c0.7-0.2,0.8-0.3,0.7-0.4c-0.1-0.1-1.5-1.1-2.5-1.5c-1-0.4-1.1-0.4-1.3-0.3C114.1,56,113.7,56.7,113.5,56.9
	z M108.8,49.2c-0.7,0.2-1.2,0.5,0,0.9c1.1,0.4,1.5,0.8,2.3,1.1c0.8,0.3,1.1,1.3,2.7,0.9c1.6-0.4,2.3-1,2.5-1.4
	c0.2-0.5-0.2-0.6-0.6-1c-0.4-0.4-0.5-0.6-1.3-0.5c-0.8,0.1-1.1,0.1-1.1,0.1s0.6-0.5,1.5-0.8c0.9-0.3,0.1-0.5,0.6-0.8
	c0.4-0.3-1.1-0.4-1.7-0.3c-0.7,0.1-0.7,0-1.7-0.1c-1.1,0-2.8,0.7-2.7,0.9c0.1,0.2,0.9,0.1,1.6,0.4c0.7,0.3,1,0.3,0.2,1.1
	c-0.7,0.8-1.2-0.2-1.4-0.3C109.3,49.2,109.5,48.9,108.8,49.2z M104,47.7c-1.1,0.1-1.5,0.6-1.1,0.7c0.4,0.1,0.7-0.1,1.4,0.4
	c0.7,0.5,1.3,0.8,1.5,0C106.1,47.9,105.7,47.5,104,47.7z M86,41.3c-1.2,0.7-1.5,1.3-2.5,1.7c-1,0.4-0.7,0.8-0.4,1.1s1.3,0,1.7-0.2
	c0.4-0.2,0.8-0.6,1.1-0.3s1.4-0.8,1.9-1.2c0.4-0.4,1.2-0.7,1.3-0.7c0.1,0-0.4,0.4-0.2,0.8c0.2,0.3,1.1,0.4,1.9-0.2
	c0.8-0.6,0.1-1.1,0.7-1.6c0.6-0.5,1.2-0.4-0.1-0.8c-1.2-0.4-2,0-2.3,0.3C88.9,40.2,88.4,39.9,86,41.3z M93.6,42.4
	c-0.7,0-1,0.1-2.2,0.5s-1.7,1.3-2,1.8c-0.3,0.5,0.1,0.5,1.2,0.8c1.1,0.3,2.6-0.1,2.9-0.8c0.4-0.7,0.8,0.2,0.6,0.5
	c-0.2,0.4,0.7,0,1.2-0.1c0.4-0.2,1.8-0.2,1.9-0.2c0.1,0-1.1,0.6-2.3,0.9c-1.2,0.3-2.1,0.4-2.5,0.5c-0.3,0,0.3,0.4,1.7,0.6
	c1.4,0.2,2.2-0.6,4.2-1.1c2-0.5,1.9-0.6,2.5-0.5c0.7,0.1,1.4-0.2,2.1-0.4c0.8-0.1,1.1,0.1,1.5-0.8c0.4-0.8,1-1.7-0.1-1.7
	c-1.1,0-1.2,0-1.3,0.9c-0.1,0.9-0.2,0.3-0.2,0.3s-0.7-0.8-1.2-1.2c-0.4-0.4-0.8-1.1-1.3-1.4c-0.5-0.3-0.7,0.1-1.5,0.8
	c-0.8,0.6-0.1,0.8,0.6,1.1c0.8,0.3,1.3,0.9,0.9,1.1c-0.4,0.2-0.8,0-2.2,0.1c-1.4,0.1-1.4-0.3-1.8-0.4c-0.4-0.1,0.7-0.4-0.9-0.9
	C94,42.3,94.1,42.4,93.6,42.4z M89,43.2c0.2-0.2-1.9,0.9-2.2,1.2c-0.3,0.3,0.3,0.3,0.9,0.3C88.3,44.7,88.4,43.9,89,43.2z M92.9,41.1
	c-0.5,0.2-0.5,0.3,0.3,0.4c0.8,0.1,1.3-0.2,1.2-0.4C94.2,40.7,93.3,40.9,92.9,41.1z M97.2,37.9c-0.5,0.1-2.2,0.5-2.3,0.7
	c-0.1,0.2,0,0.6,0.3,1c0.2,0.3,0.3,0.4,1.7,0.1c1.4-0.3,2.4-0.8,1.9-0.9s-0.7-0.2-1.2-0.3c-0.4,0,0.4-0.2,1.3-0.4
	C99.9,37.9,100.2,37.6,97.2,37.9z M92.4,38.4c-0.4,0.1-0.5,0.1,0.3,0.4c0.8,0.2,1.7,0.2,1.6,0C94.2,38.6,93.6,38.1,92.4,38.4z
	 M95.7,36.8c-0.8,0.2-1,0.6-1.1,0.8c-0.2,0.2,0.9-0.1,1.4-0.2c0.5-0.1,0.6,0.1,1.1-0.2c0.5-0.3,1.4,0,2.3-0.1c0.9-0.1,1-0.5,0.8-0.9
	C99.9,35.9,97.9,36.2,95.7,36.8z M104.1,38.3c-0.2,0.1-0.1,0.3,0.1,0.6c0.2,0.3,0.2,0.2,0.7,0.3c0.4,0.1,0.9,0.4,0.9,0.4
	c0.1,0.1,0.2,0.1,0.3-0.2c0.2-0.3-0.1-0.2-0.6-0.6C105.1,38.5,104.7,38.1,104.1,38.3z M107,40.9c-0.7-0.1-1,0.1-1.2,0.2
	s0.1,0.3,0.3,0.6c0.2,0.4,0,0.5,1,0.5c0.9,0,1.2-0.1,1.3-0.5C108.4,41.3,107.6,41,107,40.9z M110.7,41.7c-0.6-0.3-0.9-0.6-1.5-0.4
	c-0.6,0.2-0.1,0.4-0.1,0.5c0,0.1,0.7,0,0.7,0.3c0,0.3,0.2,0.4-0.6,0.4c-0.9,0-1.1,0-1.5,0.2c-0.3,0.2,0.7,0,0.9,0.3
	c0.3,0.3,0.8,0.3,1.6,0.2c0.8-0.1,2-0.2,2-0.2s-0.6,0.4-0.9,0.7c-0.2,0.3-0.4,0.7,0.1,0.9c0.4,0.2,0.5-0.2,1.7-0.2
	c1.2,0,1.6-0.5,1.6-0.5s-0.3-0.2-0.2-0.6s0-0.5,0-0.5s0.5,0.2,0.6,0.3c0,0-0.1-0.3-0.3-0.7c-0.2-0.5,0-0.5-0.2-1.1
	c-0.2-0.6-0.1-0.8-1.1-0.7c-0.9,0-1.5,0.2-2.3,0.2c-0.7,0-1.1,0.1-0.5,0.3c0.6,0.2,0.6,0.4,0.9,0.7c0.3,0.2,0.2,0.8,0.2,0.7
	C112,42.4,110.7,41.7,110.7,41.7z M106.2,44C106.1,44,106.1,44,106.2,44c-0.4,0.1-0.6,0.4-0.6,0.7s0.5,0.1,1.3-0.1
	C107.8,44.4,107.3,43.8,106.2,44z M117.9,42.9c-0.7,0.3-1.2,0.6-1.7,0.9c-0.4,0.3-0.1,0.4,1,0.7c1,0.4,2.1,0.4,2.6,0.1
	C120.4,44.3,119.7,42.2,117.9,42.9z M122.8,40c-1.3,0.1-0.9,0.2-2.5-0.1c-1.5-0.4-3.5-0.4-4-0.4s-0.3,0.2,0.3,0.8
	c0.5,0.6,0.7,0.9,1.8,0.7c1.1-0.2,2-0.3,2.9,0.5c0.8,0.8,1.3,1.1,0.6,1.4c-0.7,0.3-0.4,0.8,0,1.4c0.4,0.6,1.3,0.6,2.5,0.6
	c1.3,0,9.2-0.1,10.4-0.2s2.3-0.9,3-1.2c0.7-0.3,1-0.9,0.1-1.2c-0.9-0.4-2.2-0.7-3.2-0.7c-1,0-1.9,0.4-3.4,0.5s-1.2,0.6-2.6,0.7
	c-1.4,0-0.7,0.5-2.4,0c-1.7-0.5-3-1.1-2.2-1.2c0.8-0.1,1.5-0.2,1-0.4S124,39.9,122.8,40z M106.9,35.4c0.8,0.2,1,0.3,0.1,0.5
	c-0.9,0.2-1.6,0.6-0.7,0.5c0.9-0.1,1.7,0.1,2.9,0.2c1.2,0.1,1.1,0,1.6,0.5c0.5,0.5,1.1,0.5,1.9,0.3c0.8-0.1,0.9-0.2,0.4-0.6
	c-0.5-0.4-1.1-1.2-1.8-1.5c-0.7-0.3-1.3-0.7-2-0.7c-0.7,0-0.9,0.1-1.5-0.5c-0.6-0.6-1.1-0.3-2-0.1c-0.9,0.2-1.2,0.6-1.5,0.8
	C103.5,35.4,106,35.2,106.9,35.4z M117.7,29.4c-1,0.9-1.8,1.6-0.7,1.7c1.1,0.1,1.6-0.1,1.7,0.2c0.1,0.2-0.2,0.4-1.8,0.4
	s-1.1,0.3-0.2,1c0.9,0.8,1,0.5,2.4,0.5c1.4,0,1.9-0.4,3-0.2c1.2,0.2,1.5,0.4,0.5,0.6c-1.1,0.2-3.5,0.6-3,1c0.6,0.4,2.3,1.3,3.1,1.3
	s0.9-0.4,2.7-0.2c1.7,0.1,1.3,0.3,1.5-0.1s1.1-1.2,1.3-1.5s0.7-0.5,1.6-0.7c0.9-0.1,1.2-0.4,0.4-0.6c-0.9-0.2-1.9-0.3-1.8-0.5
	s0.6-0.7,0.3-0.9c-0.4-0.3-1-0.2-1.5-0.4c-0.5-0.1-1-0.8-1.7-1c-0.6-0.3-1.2-0.3-1.9-0.7c-0.7-0.4-2-1.4-3.4-1.3
	C119.1,28.1,118.6,28.5,117.7,29.4z M115.7,36.6c-0.4,0.1-1.3,0.2-0.6,0.6c0.7,0.4,0.5,0.4,1.4,0.2s2.2-0.8,2.3-1
	c0.1-0.2-0.9-0.5-1.6-0.7c-0.7-0.1-1.1-0.5-2.5-0.8C112.6,34.5,116.1,36.5,115.7,36.6z M161.6,23.7c-1.5-0.3-7.1-1.1-8.9-0.8
	c-1.8,0.3-1.7-0.7-4.2-0.4c-2.5,0.2-6.3,0.1-7.5,0.2c-1.2,0.1,0.6,0.5,1.2,0.8c0.7,0.3-3.1-0.3-6,0.2c-2.8,0.6-4.7,0.9-1.6,1.7
	c3.1,0.8,3.4,1.1,3.4,1.1s-3.9-0.5-5.5-1c-1.7-0.5-0.7-0.4-3.8,0.2c-3.1,0.6-6.1,1-5.9,1.6c0.1,0.7,2.5,1.6,4,1.8
	c1.5,0.2,4.7-0.3,5-0.4c0.2-0.1-1.2,0.9-1.2,0.9s1.6-0.2,3.4-0.6c1.8-0.3,3.2-0.7,4.9-1.1s2-0.6,2-0.6s-2.9,1.6-5,2.2
	c-2,0.6-4.7,0.9-5.9,1c-1.2,0-1.1,0.6,0.2,1.1c1.2,0.5,2.2,1.5,2.8,1.8c0.7,0.3,0.7,0.9,0.7,0.9s-2-1.1-4.1,0
	c-2.2,1.1-1.8,1.7-1.3,1.8c0.5,0.1,2.5,0.3,2.8,0.7c0.4,0.5,2.8-0.4,2.8-0.4s-1.2,1.1-2.5,1.1c-1.2,0-1.2-0.7-2.9-0.6
	c-1.7,0.1-1.7,0.4-0.9,0.9c0.7,0.4,1.4,0.6,0.1,1c-1.3,0.4-1.9,0.6-2,1.1c-0.1,0.5,1.7,0.5,2.8,0.5c1.1,0,2.1-0.1,4.1-0.1
	c2,0,1.7-0.5,2.5-0.5s1.5,0.2,1.2,0.7c-0.3,0.5,0.3,0.2,2.5-0.4c2.2-0.6,1.2-1.4,1-1.7c-0.1-0.3-0.9-0.4-1.5-0.6
	c-0.5-0.2,1.5-1.6,1.2-2.1c-0.3-0.5,2.5-0.1,3.7-1.3c1.2-1.2,0.8-2-0.1-2.2s1.7-0.1,2.5-0.4c0.8-0.3,2.5-0.7,3.3-1.4
	c0.7-0.6,0.9-0.9-0.7-0.7c-1.7,0.1,2.4-0.5,4.4-1.5c2-0.9,4.3-2,4.8-2.3c0.5-0.3,0.9-0.1-1.4,0c-2.3,0.1-5.2-0.1-3.6-0.3
	c1.5-0.1,6.1-0.5,7.3-1.2C161,23.9,161.6,23.7,161.6,23.7z M133.6,46.6c-2.5-0.2-6.1-0.6-6.9,0.9c-0.7,1.5-1.9,4.9-2,5.5
	c-0.1,0.6,3,1.6,5.2,1.6c2.1,0.1,5.6,0.2,4.9-0.2c-0.7-0.4-0.1-0.6,1.9-0.5c2,0.1,2.2-0.3,2.2-0.6s0.4,0.4,1.7,0.9
	c1.4,0.5,2.6,2,3.8,2.9c1.2,0.9,4,2,3.5,2.7c-0.6,0.7,0.6,3-3.7,3.5c-4.3,0.5-4.5,0.2-4.5,0.9c0.1,0.7,0.2,1,2,1c1.7,0,4-1,4.8-0.3
	c0.8,0.7,1.9,1,2.6,1.2c0.7,0.2-0.9,0.5-1.2,0.6c-0.4,0.1,0.9,0.2,3.3,1c2.5,0.8,5.4,0.9,3.9,0.3c-1.5-0.6-2.1-1.7-2.8-2
	c-0.7-0.4-0.1-0.1,1.1,0.1c1.2,0.2,2.2,0.9,2.7,1.2c0.5,0.3,0.7-0.1,1.1-1.3c0.4-1.2-0.1-1.2-2.1-2.1c-2-0.9-2.5-1.7-2.8-2.3
	c-0.2-0.7,1-0.8,1.5-1.3c0.5-0.5,1.9,0.8,2.8,1.6c0.9,0.8,1.7,2.1,2.5,1.1s1.5-3.1,1.5-3.6s-0.7,0-3.9-1.1c-3.2-1.1-4.9-1.6-5.2-1.6
	c-0.3,0,0.9-0.4,2.3-0.9c1.4-0.5,2-0.4-1-2.4s-3.8-2.4-5.8-2.6c-2-0.1-2.5-1.6-3.9-2.1c-1.4-0.5-4.6,0.6-5.6,0.8
	c-0.9,0.2-0.7,0.4-1.8-0.8C134.6,47.5,133.6,46.6,133.6,46.6z M135.9,46.6c-1.2,0.1,0.7,1.7,2.3,1.8c1.6,0.1,2.9-0.5,3.3-0.6
	C141.9,47.8,137.8,46.5,135.9,46.6z M130.3,63c-0.2,0.4-0.7,1.4-0.8,2c-0.1,0.7-0.2,0.8-0.4,1.2c-0.2,0.4,0.6-0.1,1.1,0.5
	c0.5,0.6,0.3,0.8,1.2,0.1c0.9-0.7,2-1,3.3-0.7c1.3,0.3,2.3,0.4,1.9-0.1c-0.4-0.6-1-0.5-2-1.3c-0.9-0.8-1.6-1-2.7-1.3
	C130.8,63.2,130.7,62.2,130.3,63z M139.7,120.8c-0.4-0.6-1-1.5-3.4-1.8c-2.4-0.3-3.3,0.3-4.1,0.5c-0.9,0.2,0.8,0.3,2,0
	c1.2-0.3,2-0.1,2.2,0.1c0.1,0.1-0.4,0.2-0.6,0.1c-0.2-0.2-0.2,0.4,1.1,0.7c1.3,0.3,1.6,0.5,1.8,0.9c0.1,0.4,0.1,0.6,0.4,0.9
	s0.4,0.5-0.1,0.6c-0.6,0.1-0.4,0.1,0,0.3c0.4,0.2,1.2,0.5,2.4,0.5c1.1,0.1,1.5,0.2,0.7-0.5C141.2,122.4,139.8,121,139.7,120.8z
	 M143.3,124.4c0.6,0.5,0.4,1,0.4,1.2c0,0.3-0.7,0.1-2-0.2c-1.3-0.2-1.1-0.1,0,0.3c1.1,0.4,1.8,0.3,1.7,0.9s1,0,1.5-0.3
	c0.5-0.3,0.4,0,2.4,0.2c1.9,0.2,2.3,0.5,2-0.1c-0.3-0.6,0.9-0.6-0.8-1.1C146.8,124.7,142.6,123.9,143.3,124.4z M137.8,124.8
	c-0.7-0.6-1.6-0.7-1.7-0.2c0,0.5,0.2,0.5,0.9,0.6C137.7,125.3,138.3,125.2,137.8,124.8z M151.9,127.3c-0.8-0.2-1,0.2-0.4,0.6
	c0.5,0.3,1.3,0.2,2.1,0.2C154.4,128,153.2,127.6,151.9,127.3z M142.8,58.2c-1.1,0.3-1.7,0.5-0.7,1.4c0.9,0.9,1.5,1.4,1.8,0.8
	C144.2,59.7,144.5,57.7,142.8,58.2z M134.3,67.4c-1.6,0.2-2.1,0.2-1.8,0.8c0.2,0.6,0.7,0.5,1.7,0.1C135.3,68,136.1,67.2,134.3,67.4z
	 M137.6,68.3c-0.3,0.1-0.4,0.5,0,0.9c0.4,0.4,1-0.1,1.3-0.6C139.3,68.1,138.6,68.1,137.6,68.3z M120.3,37.9c-1.5,0-3.7,0.4-2.5,0.4
	c1.2,0,2.3,0.2,4.3,0.1c2-0.1,2.2-0.2,2.3-0.9C124.5,36.8,123.1,37.8,120.3,37.9z M111,32c-1.5,0.3-1.2,0.6,0.7,1.1
	c1.8,0.6,1.8,0.3,1.7-0.8C113.1,31.3,111.9,31.8,111,32z M217.8,59.7c-1.9,0.4-2.5,0.1-2.9,0.8c-0.4,0.7-1.1,0.3-1.5,0.4
	c-0.4,0.1-1,2-1.3,1.7s-0.4-0.4-0.8-1.1c-0.4-0.7,0.1-0.5-0.7-1.2c-0.8-0.7-2.5-0.6-2.6-0.3c-0.1,0.3,1.1,0.5,0.7,0.8
	c-0.4,0.3-1.4,0.7-1.8,0.9c-0.4,0.2,0.7,0.1,1.5,0c0.7-0.1,1.2,0.4,1.5,0.7c0.3,0.4-0.3,0.7-0.6,0.9c-0.3,0.2,1,0.1,1.6,0.2
	c0.5,0.1,0.8,0.4,0.4,0.8c-0.4,0.4,1.6,0.1,2.7,0c1.1,0,1.4,0.5,3,0.2c1.6-0.4,2.4-0.3,3.9-1.1c1.5-0.8,1.4-0.6,2.4-1.1
	c1-0.5,0.7-0.7,0.8-1.2c0-0.6,0.7,0.2,0.4-0.7c-0.2-0.8-1.5-0.6-2.3-0.7c-0.9-0.1-0.8-0.5-1.2-0.7C220.2,58.9,219.7,59.3,217.8,59.7
	z M344.2,132.4c-0.1,0.2-0.2,0.4-0.2,0.9c0,0.4-0.1,0.9,0,1.4c0.1,0.4,0.1,0.8,0.4,0.9c0.4,0.1,0.6,0.2,1.2,0c0.6-0.2,1.1-0.5,0.8-1
	c-0.3-0.5-0.8-1.2-1.1-1.6C345,132.5,344.4,132,344.2,132.4z M343.8,131.7c0.1,0.2,0.1,0.1,0.3,0.3c0.1,0.1,0.3,0,0.1-0.2
	c-0.2-0.2-0.1-0.2-0.1-0.2S343.8,131.6,343.8,131.7 M397.7,158.1C397.7,158.1,397.7,158.1,397.7,158.1c-1.1,0.8-2,0.6-3.8,1
	c-1.8,0.4-4.9,1.7-5.1,2.3c-0.2,0.6,0,0.6-0.2,0.6c-0.2-0.1-0.6-0.4-0.6-0.4s-0.5,0.7-0.4,1.3c0.1,0.6,0.5,1,0.5,1.8
	c0,0.8-0.4,1.3-0.4,1.8c0,0.5,1.3,1.6,1.7,2.2c0.3,0.6,0.6,0.5,0.7,1.6c0.2,1.2,1,1.8,0.2,2.4c-0.9,0.6-1.5,0.5-0.4,1.1
	c1,0.6,1.9,1.1,3.6,0.6c1.7-0.4,1.2-0.8,2.5-1c1.3-0.2,1.6-0.4,2.7-0.4c1.1,0,1.9,0,2.3-0.5c0.4-0.6,0.1-0.5,1.2-0.9
	c1.1-0.4,1-0.5,1.8-0.6s1.2,0.3,2.3-0.3c1-0.6,0.3-0.6,2.5-0.6c2.3,0,3.2,0.2,4,0.4c0.8,0.2,2.2,0.7,2.5,1.1
	c0.3,0.4,0.8,0.8,0.9,0.8s0.3,0,0.9-0.3s2-1.1,2-1.1s-0.1,0.8-0.4,1.1c-0.3,0.3-0.3,0.7-0.3,0.9c0,0.1,0.9-0.5,1-0.5
	c0.1,0,0.2,1.1,0.3,1.2c0.1,0.1,0.4,0,0.8,0.4c0.3,0.3,0.8,0.6,1.1,1.2c0.3,0.6,1.8,1.2,2.7,1.3c0.9,0.1,1.7,0,2.4,0
	c0.7-0.1,0.7-0.6,1.4-0.4c0.7,0.2,0,0.7,1.7,0.6s2.1-0.5,2.8-0.8c0.7-0.3,0.7,0.4,1.6-0.4s1-0.6,1.2-1.7c0.1-1,0.1-1.2,0.9-2.2
	c0.8-1,1-0.5,1.6-1.9s1.3-2.8,1.2-3.9c-0.1-1.2,0-0.4-0.3-1.7c-0.4-1.3-0.1-1.2-1.3-1.7c-1.2-0.5-1.5-0.4-1.8-1.2
	c-0.3-0.8,0.1-1-0.5-1c-0.6,0-1,0.2-1.4-0.3c-0.3-0.5-0.3-0.7-0.9-1.2c-0.6-0.5-1.2-0.4-2.4-0.8c-1.2-0.4-0.6-0.5-0.6-1.1
	c0-0.6,0.1-1.3-0.9-1.6c-0.9-0.3-0.4,0.2-0.4-0.9c0-1,0-0.9-0.7-1.1c-0.7-0.2-1-0.2-1.5-0.8c-0.5-0.6-1.1-1.7-1.3-2.1
	c-0.2-0.4-0.5,0-0.8,0.4c-0.3,0.3-0.7,1-0.7,1.7c0,0.6,0.4,1,0.4,1.9c0,0.9-0.9,1.7-1.4,2.2c-0.5,0.5-0.9,0-1.4-0.1
	c-0.4-0.1-0.5-0.6-1.5-0.9c-0.9-0.3-2.7-0.6-3.5-1.1c-0.8-0.5-0.2-0.5,0-1.1c0.2-0.5,0.6-1,1.2-1.3c0.6-0.3,0.4-0.5-0.3-0.8
	c-0.7-0.3-1.8-0.3-3.1-0.3c-1.3,0-2-0.1-2,0.4c0.1,0.5,0.8,0.7-0.2,0.6c-1.1-0.1-2-0.2-2.5,0.1c-0.5,0.4-0.6,0.6-0.9,1.4
	c-0.3,0.8,0.1,0.8-0.4,0.8s-2.2-0.6-2.8-0.8c-0.6-0.2-0.9-0.2-1.6,0.3c-0.7,0.5-3.1,2-4,2.3C398.6,156.1,398.6,156.1,397.7,158.1z
	 M364.4,135.8c-0.5,0-0.8-0.1-0.2,0.4c0.7,0.6,0.8,0.7,1.5,1.1c0.6,0.4,0.9-0.3,1.3,0.5c0.5,0.8,0.3,0.8,0.8,1.1
	c0.5,0.3,0.9,0.4,1,0.7c0.1,0.3,0.3,0.8,0.8,1.1c0.6,0.3,0.6,0.3,0.9,0.9c0.3,0.6,0.8,1.1,1.1,1.7c0.2,0.5,1.7,1.1,2.4,1.7
	c0.7,0.7,2,1.6,2.2,1.4c0.2-0.3,0.7,0,1.1-0.1c0.4-0.1,0.5-0.5,0.7-1.4c0.2-0.9-0.2-1.4-0.6-1.6c-0.4-0.2-1-0.3-1.2-0.5
	c-0.2-0.2-0.5-0.9-0.9-1.1c-0.4-0.2-0.5,0-0.5-0.5s0.5-0.5-0.1-0.8s-0.7-0.5-0.9-0.7c-0.2-0.1-1.5-0.4-1.9-0.6s-1.8-0.7-2.5-1.2
	c-0.7-0.5-1.5-0.9-1.7-1.3C367.4,136.3,366.7,136,364.4,135.8z M378.9,146.4c-0.6,0-0.9-0.2-1.3,0.3c-0.4,0.5-0.4,0.5,0.3,0.5
	s0.5,0.2,0.5,0.3c0,0.1-0.3,0,1,0.3s2.2,0.2,2.5,0.1c0.4-0.1,0.5,0.3,2.2,0.5c1.7,0.2,2.7-0.1,3.8,0.1c1.1,0.2,0.9-0.1,0.1-0.5
	c-0.8-0.4-0.7-0.2-1.5-0.6c-0.8-0.4-1.9-0.4-2.4-0.5c-0.5-0.1,0.4,0.4-1.2,0.2c-1.6-0.1-1,0.1-1.8-0.3c-0.8-0.4-0.8-0.4-1.4-0.5
	C379,146.3,378.9,146.4,378.9,146.4z M391.6,148.2c-0.4,0.1-1.4,0.3-0.9,0.4c0.4,0.1,0.1,0.2,1.4,0.1c1.3-0.1,2.5-0.2,2.6-0.4
	c0.2-0.2-0.2-0.1-0.8-0.2c-0.5-0.1-0.5,0.1-1.2,0.1C391.9,148.4,391.6,148.2,391.6,148.2z M396.2,148.2c-0.9,0.1-0.8,0.2-0.1,0.4
	c0.7,0.1,1.3,0.2,1.9,0.1c0.5-0.1,0.6-0.2,1.6-0.3c1-0.1,1.3-0.1,2.1-0.2c0.8-0.1,0.8-0.1,0.8-0.1s-0.1-0.1-0.6-0.1s-0.9,0-1.4,0
	s-1.4,0.3-1.8,0.3c-0.4,0-1.1-0.2-1.3-0.1C397.2,148.3,397.2,148.1,396.2,148.2z M401.2,149C401.2,149,401.2,149,401.2,149
	c-0.7,0.3-0.7,0.4-0.6,0.6c0.1,0.2-0.1,0.3-0.1,0.3s0.9,0,1.6-0.5c0.7-0.5,0.7-0.5,1.4-0.7c0.7-0.2,1.5-0.7,1.5-0.7s-0.6,0.1-1.2,0
	c-0.6,0-1.2,0.2-1.4,0.3C402.3,148.5,402.7,148.6,401.2,149z M396,149.2c-0.7-0.3-1.3-0.3-1.3-0.1c0,0.2-0.6,0.2,0.4,0.4
	c0.9,0.2,1.8,0.6,1.7,0.2C396.7,149.5,396.3,149.4,396,149.2z M390,135.5c-0.4,0.4,0.4,0.3-0.2,0.6c-0.5,0.3-1,0.2-1.5,0.7
	c-0.5,0.5-1.4,0.8-1.7,1c-0.4,0.2-1.5,0.4-2,0.9s0.2,0.7,0.2,0.7s-0.3,0.1-1.1-0.1s-0.9-0.5-0.9-0.5s-0.6,0-0.9,0.6
	c-0.3,0.6-0.5,0.7,0.1,1c0.6,0.4-0.4,0.4-0.3,0.6c0.1,0.2,0.1,0.7,0.5,0.8c0.4,0,0.4-0.2,0.9,0.1s0.1,1.5,0.6,1.5
	c0.6,0,0.9-0.1,1.4,0c0.5,0.1,0.8,0.3,1.5,0.1c0.6-0.1,1.3,0,1.6,0.1c0.3,0.1,1.5,0.4,2.1,0.4c0.6,0,0.7,0.1,0.8-0.5
	c0.1-0.6,0-1.1,0.7-1.6c0.7-0.4,0.7-0.4,0.8-0.9c0.1-0.4,0.1-0.8,0.5-1.3c0.4-0.4,0.7,0.2,0.9-0.1c0.2-0.3,0.4-0.3,0.3-0.5
	c-0.1-0.2-0.8-0.2-1-0.5c-0.2-0.3,0.1-0.5-0.2-1.1c-0.3-0.6-0.5-0.4-0.1-0.8c0.4-0.4,0.8-0.4,0.8-0.7c0.1-0.3,0.2-0.3,0.7-0.6
	c0.5-0.3-0.1-0.1-0.6-0.4c-0.5-0.3-1.4-1.3-2-1.2C391.6,134.1,390.4,135.1,390,135.5z M463.9,170.5c-0.2-0.1-0.4,0,0.1,0.4
	c0.5,0.5,0.6,0.3,0.9,0.3c0.4,0,0.7,0.9,0.9,1.2s0.6,0.5,0.6,0.5s0.2,1,0,1.4c-0.2,0.4-0.6,0.6-0.7,1.1c-0.1,0.4,0.6,0.3,1,0.4
	c0.4,0.1,0.4,0.1,0.2,0.5c-0.2,0.4-0.7,0.5-0.7,0.6c0,0.1,1,0.5,1.5,0c0.5-0.4,1.3-1.1,1.6-1.6c0.2-0.5-0.4-0.3,0.3-0.6
	c0.7-0.3,0.6-0.2,1-0.6s0.8-0.9,0.4-1.1c-0.4-0.2-0.9,0.3-1.3,0.4c-0.4,0.1-0.7,0.1-1.2-0.1c-0.5-0.2-0.6-0.2-0.8-0.5
	c-0.2-0.3-0.4-0.5-0.4-0.5s-0.1,0.6-0.5,0.4c-0.4-0.2-0.3-0.4-0.6-0.7c-0.3-0.3-0.3-0.4-0.4-0.6c-0.2-0.2,0-0.7-0.9-0.7
	C464,170.6,464.1,170.6,463.9,170.5z M464,176.5c0,0-0.7,0.4-1.3,1c-0.6,0.6-0.7,0.8-0.9,1.2c-0.2,0.3-0.9,0.7-2.1,1.2
	c-1.2,0.4-1.7,0.6-2,1c-0.4,0.4-1.8,1.7-2,1.8c-0.2,0.1,0.7,0.3,1.5,0.3s2.3,0.6,3,0c0.7-0.6,1.5-1.9,2-2.4c0.5-0.5,0.9-0.7,1.7-1.2
	c0.7-0.5,2-1.4,2-1.7c0-0.3-0.3-0.9-0.3-0.9s-0.3,0.4-0.9,0.3C463.9,177.1,464,176.5,464,176.5z M458.1,182.8
	c-0.9-0.3-1,0.3-1.2,0.9c-0.1,0.6,0.4,0.1,1.1-0.2C458.8,183.3,458.5,183,458.1,182.8z M428.4,178.5c-1-0.2-0.8,0.4-0.7,0.9
	c0.1,0.5,0.4,0.9,0.7,1.3c0.4,0.4,1.8,0.6,2.3,0.4c0.5-0.2,0.9-0.8,1.5-1.4c0.6-0.6,0.8-1.2,0.7-1.6s-0.8,0.3-1.2,0.5
	s-1,0.5-1.9,0.4C429,178.8,428.8,178.6,428.4,178.5z M416,143.1c-0.8,0.1-1.2-0.4-1.8-1.3s-1.2-1.1-2.8-0.7
	c-1.7,0.4-1.4,0.3-0.3,0.6c1.1,0.3,1.2,0.4,1.4,0.4c0.1,0,1.7,0.2,1.4,0.3c-0.4,0.2-1.8,0.3-0.9,0.8c0.9,0.5,0.6,0.1,3.1,1
	c2.5,0.9,2.9,0.2,3.7,1.4c0.8,1.2,0.8,1,0.1,1.3c-0.7,0.3-1.5,0.6-1.2,0.6c0.4,0,1,0.1,2.7,0.2c1.7,0.1,0.1,0.8,2,0.8
	s2.4-0.4,3.1-1.1s0.9-0.3,2.5,0s2.2,1.3,4.1,1.7c2,0.4,2.8,0.9,1.6,0.1c-1.2-0.8-1.7-1.4-3.4-2.4c-1.7-0.9-1.8-1.1-2.3-1.8
	c-0.5-0.7-2.3-1.6-4.2-2.1c-2-0.6-3.1-0.6-5.3-1.1C417.2,141.3,416.8,143,416,143.1z M402.8,139.8c-0.7,0.4-0.8,0.1-1.4-0.1
	c-0.6-0.2-0.4,0.5-1.7,0.1c-1.2-0.4-1.7-0.6-3.1,0.1c-1.3,0.7-0.5,1-0.5,1.5s-1.1,1.9-1.5,2.4c-0.4,0.5-0.4,0.7-0.1,1
	c0.3,0.3,0.7,0.2,0.9,0.4c0.2,0.2,0,1.5-0.2,1.9c-0.2,0.4,0.5,0.5,1.3,0.4c0.8-0.1,0.1-0.2,0.1-0.6s0.4-0.7,0.4-1.5
	c0-0.8,0-1.2,0-1.2s0.2-0.1,0.5,0.2c0.3,0.3,0.7,1.1,1,1.5c0.3,0.4,0.7,0.7,1.2,0.4s1-0.6,1-0.6s-1-0.2-1-0.5c0-0.2,0.4-0.5-0.3-1.3
	c-0.7-0.8-1.1-0.9-0.2-0.9c0.9,0,0.9-0.7,1.4-0.9c0.5-0.2,1.3-0.1,1.3-0.1s-0.5-0.4-1.3-0.2c-0.8,0.2-1.5,0.2-2.2,0.5
	s-1.3,0.4-1.4-0.1c-0.1-0.5-0.2-0.6-0.1-1.3c0.1-0.7,1.2-0.2,2-0.3c0.8-0.2,0.8-0.1,2.6,0c1.8,0.1,1.9-0.2,2.4-0.7
	c0.5-0.5,0.8-1.1,0.8-1.1S403.6,139.4,402.8,139.8z M407,138c0.2-0.2-1.3,0.7-1.6,0.9c-0.3,0.2,0,0.4,0.2,0.7
	c0.2,0.3,0.1,1.2,0.2,1.4c0.1,0.2,0.8,0.4,0.8,0.4s0-0.6,0.2-0.9c0.3-0.3,0-0.6,0-1.1C407,138.8,406.6,138.6,407,138z M404.2,143.4
	c-1.2-0.3-1.6-0.1-1.6,0.3c0,0.4-0.1,0.6,1.1,0.6C404.9,144.4,406.3,144,404.2,143.4z M406.4,143.1c-0.3,0.1-0.6,0.7-0.4,1.1
	s0.4,0.1,1,0c0.6-0.1,0.5-0.4,1.3-0.5c0.8,0,2.5,0.4,2.5,0.4s0.4-0.3-0.9-0.9C408.6,142.7,408,142.8,406.4,143.1z M383.6,122.1
	c0,0-1.2,0-1.3,0c-0.2,0-0.6,0.3-0.9,0.4s-0.3,0.3-0.1,0.6s0.5,0.3,1.1,0.4c0.6,0.1,0.4-0.2,0.8-0.3c0.4-0.1,0.5-0.4,0.6-0.6
	c0.1-0.2,0.4-0.3,0.5-0.4c0.1-0.1-0.3-0.4-0.3-0.4C383.9,121.9,383.6,122.1,383.6,122.1z M397.1,123.3c-0.4-0.2-0.7,0.6-0.8,1
	c-0.1,0.4-0.3,0.7-0.1,1c0.2,0.3,0.1,0.4,0.1,0.4l-0.7-0.3c0,0-0.2,0.4-0.2,0.7c0,0.3-0.2,0.5,0.6,0.7c0.7,0.2,1,0.1,1.1,0.5
	c0.1,0.4,0.1,0.5,0.6,0.6c0.5,0.1,1.1,0.2,1.3,0.4c0.2,0.2,0.1-0.6,0.4-0.6c0.4,0,0.7,0.4,1,0.6c0.2,0.3,0.6,0.3,0.6,0.3
	s-0.6-0.7-0.3-0.8c0.2-0.1,0.3-0.1-0.3-0.4c-0.7-0.3-1.2-0.2-1.7-0.3c-0.5,0-0.5,0.2-0.9-0.4s-0.1-1.1-0.1-1.3s0.3,0.2,0.6-0.2
	c0.3-0.5,0.4-0.9,0.3-1.3c-0.1-0.5,0.4-0.6,0.1-0.7C398.5,123.4,397.4,123.4,397.1,123.3z M403.1,132.2c0.1,0.3-0.4-0.1-0.7,0.1
	c-0.2,0.2-0.3,0.2-0.6,0.2c-0.3,0.1-1.1,0.6-1.1,0.6s0-0.3,0-0.4c0-0.1-0.2-0.5-0.5-0.2c-0.2,0.3-0.5,0.4-1,0.6s-0.9,0.5-0.9,0.8
	c-0.1,0.3,0.3,0.3,0.3,0.3s0.2-0.1,0.6-0.5c0.3-0.4,0.4-0.4,1-0.4c0.6,0,0.6,0,0.8,0.2s0,0.6,0.1,0.9c0,0.3,0,0.6,0.6,0.7
	c0.7,0.2,0.3,0,0.9,0c0.6,0,0.6,0,0.5-0.2c-0.1-0.2-0.3-0.4-0.3-0.6c0-0.2,0.3-0.4,0.5-0.4c0.1,0,0.2,0.2,0.4,0.6
	c0.2,0.3,0.3,0.3,0.3,0.1c0.1-0.2,0.3-0.8,0.2-1.1c-0.1-0.3-0.1-0.5-0.1-0.8s-0.3-0.5-0.5-0.6c-0.2-0.1-0.7-0.5-0.7-0.5
	S403,131.8,403.1,132.2z M400.2,130.1c0,0,0-0.2-0.5-0.6c-0.5-0.4-0.6-0.5-1.4-0.6c-0.8-0.1-1.7,0-1.3,0.7c0.4,0.6,0.4,0.7,1.2,0.8
	c0.7,0.1,1.1-0.2,1.1-0.2s0.1,0.1-0.6,0.4c-0.7,0.3-0.7,0.9-0.2,1.1c0.5,0.2,0.5,0.6,0.8,0.4c0.3-0.2,0.5-0.8,1.1-1.1
	c0.6-0.4,0.7-0.5,0.7-0.9c0.1-0.4,0-0.8,0-0.8L400.2,130.1z M401.6,128.9c-0.1,0-0.5,0-0.1,0.3c0.4,0.3,0.9,0.4,0.8,0.6
	c-0.1,0.2,0,0.3-0.3,0.2c-0.3,0-0.3-0.1-0.4-0.1c-0.1,0-0.1,0.1-0.1,0.3c0.1,0.1,0.1,0,0.3,0.2s0.2,0.3,0.2,0.6
	c0.1,0.3,0.2,0.1,0.2,0.1s-0.1-0.7,0-0.8c0-0.1-0.1-0.5,0.2-0.4c0.3,0.1,0.2,0.5,0.4,0.1s0.1-0.7,0-1s-0.4-0.3-0.8-0.3
	C401.8,128.9,401.6,128.9,401.6,128.9z M395.1,130.1c-0.2,0-0.3,0.2-0.4,0.6c-0.1,0.5-0.5,0.7-0.9,0.9c-0.4,0.3-1.4,1-1.5,1.1
	c-0.1,0.1-0.1,0,0.7-0.2c0.8-0.3,1.4-0.6,1.5-1c0.1-0.4-0.1-0.1,0.6-0.4c0.7-0.2,0.3-0.3,0.4-0.7C395.6,130.2,395.5,130,395.1,130.1
	z M436.5,143.6c-0.1,0.5,0.2,0.6-0.4,0.9c-0.6,0.3-1.3,0.3-1.9,0.4c-0.6,0.1-0.2-0.1-1-0.1c-0.8,0-1,0-0.6,0.3
	c0.4,0.3,0.3,0.6,1.4,0.5c1.2,0,2.1-0.5,2.9-0.6c0.7-0.2,0.7-0.6,0.7-0.8C437.7,144,436.6,143.1,436.5,143.6z M439.7,144.6
	c0.3,0.3,0.2,0.3,0.6,0.7c0.4,0.4,1.1,0.5,1.5,0.6c0.5,0.1,0-0.1-0.4-0.5c-0.4-0.3-0.4-0.5-0.9-0.9
	C440.1,144.2,439.2,144,439.7,144.6z M397.6,116.8c-1.6,0.7-2.3,0.7-1.7,1.6s1,1.3,1.1,1.5c0.1,0.2,0.4-0.1,0.8-0.8
	c0.4-0.7,0.5-1.7,0.7-2C398.7,116.8,398.1,116.6,397.6,116.8z M425,81.2c0.2,0.5,0.4,1.2-0.1,1.3c-0.4,0.1-0.7,0.6-0.8,1.2
	c-0.1,0.5-0.3,1.2,0.1,1.7c0.4,0.4,0.1,0.5,0.1,0.8c0,0.4,0.1,1.3-0.1,1.8c-0.2,0.5-0.4,0.7-0.3,1.3c0.1,0.6,0,0.7,0,1.5
	c0,0.8-0.1,1.5,0,1.8c0.1,0.3,0.3-0.2,0.5-0.3c0.2-0.1,0.9-0.2,1.2,0.1c0.4,0.3,0.4,0.3,0.4,0.3s0.6,0.2-0.2-1.1
	c-0.8-1.3-1-1-0.7-2.1c0.2-1.1,0.4-1.2,1.2-1.3c0.9-0.1,1.3,0.7,1.4,0.8c0.1,0.1-0.1-0.3-0.4-0.9c-0.3-0.6-0.6-0.9-0.7-1.7
	c-0.1-0.8-0.4-1.5-0.9-1.7c-0.4-0.2-0.2-0.6,0-0.9s0.3-0.8,0.2-1.3c-0.1-0.5-0.3-1.3-0.4-1.6c-0.1-0.3-0.6,0.2-0.6,0.2L425,81.2z
	 M424.2,93.9c0.1,0.4,0.1,0.7-0.2,1.1c-0.4,0.4-0.1,0.5-0.3,1.1c-0.2,0.6-1.2,0-1.2,0.1s-0.1,0.5-0.4,0.7c-0.2,0.1-1.1,0.2-0.9,0.8
	c0.2,0.6,0.7,1.2,0.7,1.2s0.5-0.3,0.7-0.4c0.1,0,0.6-0.1,0.6-0.1s-0.1-0.2-0.6-0.3c-0.6-0.2-0.5-0.6-0.4-0.7c0.1-0.1,0.8,0,1.2,0
	c0.4,0,0.8-0.2,1.4,0.1c0.5,0.3,1.3,0.4,1.3,0.4s0.1-0.5,0.4-0.8c0.2-0.3,1-0.2,1.7-0.3c0.7-0.1,1.3-0.2,1-0.4
	c-0.2-0.2-0.2-0.7-0.4-1.1c-0.1-0.4-0.6,0-1,0.1c-0.4,0.1-0.9,0-1.4-0.2c-0.5-0.2-1.4-1.1-1.7-1.5C424.7,93.7,424.2,93.5,424.2,93.9
	z M422,99.3c-0.2,0.1-0.5,0.5-0.5,1c0.1,0.5,0.6,0-0.1,1.4c-0.7,1.5-1.1,1.8-1.9,2.2c-0.7,0.4-1.4,0.4-1.7,0.3
	c-0.3-0.1,0.1-0.4,0.3-0.5c0.2-0.1-0.6-0.1-1-0.1c-0.4,0,0,0.3-0.1,0.6c0,0.2-0.7,0.9-0.7,1.1c0.1,0.3,0.1,0.4-0.4,0.5
	c-0.4,0.1-0.7-0.2-0.9-0.3c-0.1,0-0.8,0.1-1.7,0.2c-0.9,0.1-1.1,0.3-1.5,0.8c-0.4,0.5-1.3,0.5-1.9,0.7c-0.6,0.2-0.4,0.8-1.1,1
	c-0.7,0.2-0.7,0.6-0.7,1c-0.1,0.3,0.4,0.1,0.5,0.1c0.1,0,0.1-0.5,0.5-0.4c0.4,0,0.5,0.1,0.3,0.4c-0.2,0.3-0.4,0.5-0.6,0.8
	c-0.2,0.3,0.1,0.4,0.4,0.7c0.3,0.3,0.7-0.1,1.4-0.6c0.7-0.5,0.8-0.7,0.7-1.3c-0.1-0.6-0.3-0.6-0.9-0.8s-0.6,0-0.1-0.5
	c0.6-0.5,0.8,0,1.2-0.2c0.4-0.2,1.4-0.2,2.3-0.4c0.9-0.2,1.8-0.4,1.8-0.2c0,0.2,0.3,0.9,0.4,1.1c0,0.1,0.6-0.2,1.3-0.4
	c0.6-0.2,0-0.2,0-0.5c-0.1-0.3,0.3-0.4,0.3-0.4s0.3,0.5,1.3,0.1s1.1-0.5,1.3-0.4c0.3,0,0.4,0.2,0.8,0c0.4-0.2,0.5,0,0.4,0.1
	c-0.1,0.1,1.2-0.3,1.5-0.4c0.3-0.1,0.1,0,0-0.5c-0.1-0.5-0.5-0.6-0.3-1.2c0.2-0.7,0.1-0.7,0.2-1.1s0.3-0.5,0.4-0.5
	c0.1,0,0.1-0.6,0.5-0.9c0.3-0.3,0.2-0.4,0.2-1.1s-0.5-0.6-0.6-1c0-0.5,0.1-0.9,0.1-0.9s-1.1,0.3-1.2,0.5c-0.1,0.2-0.1,0.2-0.1,0.2
	S422.3,99.2,422,99.3z M415,106.7c-1.1,0.1-1.9,0.2-2.5,0.4c-0.7,0.1-0.8,0.4-0.7,0.8c0.1,0.5,0.4,0.9,0.4,1.2
	c0.1,0.2,0.4,0,1.1-0.2c0.6-0.2,0.6-0.9,1.2-0.9c0.6,0,0.4,0.5,1.2-0.2c0.8-0.7,0.2-0.7,0.2-1.1C415.9,106.3,415,106.7,415,106.7z
	 M485,70.1c-1.2-0.2-1.5-0.3-1.6,0c-0.1,0.3-0.2,0.4,0.5,0.6c0.7,0.2,1.1-0.1,1.8,0.2c0.7,0.4,0.9,0.4,1.4,0.3
	c0.5,0,0.7-0.2,0.7-0.2S485.9,70.2,485,70.1z M471.5,56.9c-0.4,0.1-0.8-0.2-0.7,0.5c0.1,0.8,0.4,0.8,1.7,0.7c1.4-0.1,0.3,0,2.2-0.1
	c1.9-0.1,2.3-0.3,2.3-0.3s-0.3-0.4-0.9-0.7c-0.6-0.3-1.5,0.2-2.9,0.1C471.7,56.9,471.5,56.9,471.5,56.9z M429.3,45.7
	c0,0.3,1.9,1.1,2.5,1.3c0.7,0.2,1.2,0.1,2.6,0c1.4-0.1,1.5-0.5,1.7-0.8c0.2-0.2-0.7-0.2-1.6-0.3s-1.7,0.1-2.1,0s0.5-0.2-0.3-0.5
	c-0.8-0.2-1,0.1-1.2,0c-0.2-0.1-0.2-0.3-0.6-0.3C429.8,45.1,429.2,45.4,429.3,45.7z M421.9,47.4c-0.7,0.2-0.6,0.3,0.1,0.8
	c0.7,0.4,0.5,0.3,0.2,0.6s0,0,1,0.3c1,0.3,1.5,0.9,2.1,1.1c0.7,0.1,1.1,0,1.1,0s-0.2-0.5-0.8-1.1c-0.6-0.6-2-0.8-2.2-1.3
	C423.2,47.3,422.8,47.1,421.9,47.4z M428.6,45c0,0-0.9-0.4-2.4-1c-1.4-0.6-2-0.8-2.5-0.9c-0.5,0-0.4,0.4-0.6,0.7
	c-0.2,0.3-0.3,0.3-1.1,0c-0.7-0.3-1.5-0.7-2.3-0.8c-0.8-0.1-1.2,0.3-2.1,0.9s-0.4,0.8,0.7,1.7s1.5,1,2.4,0.6
	c0.9-0.4,0.6-0.6,1.2-0.4c0.6,0.2,2.8-0.2,2.8-0.2c0.1,0-0.1,0.8,0.8,0.6s1.8-0.3,2.2-0.7C428.3,45.2,428.6,45,428.6,45z
	 M363.7,27.3c-0.3,0.2-1.9,0.1-2.7,1c-0.8,0.9-1.4,0.3-1.8,0.8c-0.4,0.6-0.8,1.2-0.8,1.2s0.7,0.6,1.5,0.6c0.8,0,2.2,0.2,3,1
	c0.8,0.8,1.4,0.8,3.2,1c1.9,0.2,1,0.4,2,0.3c1-0.1,2.3,0.1,2-0.3c-0.3-0.3-0.5-0.6-0.4-1.2c0.1-0.7,1-0.6,0-1.1
	c-1-0.4-1.7-0.1-1.7-0.2c0.1-0.1,0.9-0.3,0.6-0.3c-0.4,0-2.1-0.1-2.3-0.8c-0.2-0.7,0.5-0.7,0.8-0.8c0.4,0,0.3-0.1-0.7-0.6
	c-1-0.5-2.3-1-2.3-1C363.5,27.1,364,27.1,363.7,27.3z M373.1,32.3c-0.7,0.1-1.3,0.6-1.7,1.1c-0.4,0.4-1.3,1.1-1.8,1.4
	c-0.5,0.3-0.4,0.4,0.5,0.6c0.9,0.2,2.3-0.4,2.8-0.4c0.4,0,0.7,0.4,2.1,0.3c1.4-0.1,3.4-0.3,2.4-0.8c-1-0.5-0.7-0.3-1.7-0.9
	c-1.1-0.6-2.5-0.7-2.5-0.7s2.3-0.5,1.7-0.6C374.2,32.3,373.1,32.3,373.1,32.3z M315.4,24.2c-1.3,0.3-0.9,0.5-1.7,1
	c-0.8,0.5-0.3,0.6,1.5,0.3c1.8-0.3,1.9-0.4,3.1-0.8C319.5,24.2,317.3,23.7,315.4,24.2z M318.3,26.5c-1.2,0.4-0.9,0.8-0.6,1.1
	c0.3,0.3,1.2-0.2,1.5,0.2s0.3,0.2,1.5-0.3c1.2-0.5,0.7-0.4,0.3-0.9C320.5,25.9,320.4,25.8,318.3,26.5z M311.4,26.2
	c-0.8,0.3-0.8,0.2,0,0.5c0.7,0.2,2.6,0.4,3.5,0c0.9-0.4,0.9-0.3-0.3-0.5C313.4,26.1,312.3,25.9,311.4,26.2z M299.9,27.2
	c1.2-0.1,2.3-0.1,3.3,0c1,0.1,0.6,0.7-1.2,0.8c-1.8,0.1,0.2,0.3,1.4,0.3c1.3,0,0.4-0.8,1.5-1c1.1-0.3,1.7-0.1,3-0.4
	c1.3-0.3-0.7-0.6-2.2-0.6c-1.5,0-2,0.1-3.2,0s-2.3,0.3-3.6,0.5C296.3,27.1,298.6,27.3,299.9,27.2z M309.4,27.5
	c-1.1,0-3.6,0.4-1.5,0.6c2.2,0.1,2,0.2,2.9,0C311.7,27.8,310.5,27.5,309.4,27.5z M317,27.8c-1.5-0.4-1.6-0.2-2.7-0.2
	c-1.2,0-1.6,0.6-0.9,0.8s1.3,0.1,1.9,0.1s0.6-0.2,0.2-0.3C315.1,28,317.9,28,317,27.8z M323.4,26.5c-1.2,0.1-1.2,0.2-1.3,0.5
	c-0.1,0.3,0.2,0.2,1.4,0.1c1.2-0.1,1.8-0.2,2.6-0.5c0.8-0.3-0.2-1.1-0.2-1.2s-1.1,0.4-1.5,0.6C324.1,26.1,324.8,26.3,323.4,26.5z
	 M231.6,73.9c-0.6,1.2-1.6,1.7-0.4,1.4c1.2-0.3,2.3-1.3,2.2-0.5c-0.1,0.9-1.2,0.7-0.8,1.6c0.4,0.8,0.1,0.8,2,1.1
	c1.9,0.3,0.4,0.2,0.8,1c0.5,0.8,0.8,1,0.3,1.3c-0.5,0.2-2-0.7-2.1-0.3c-0.1,0.4,0.2,0.7,0.6,1.3c0.4,0.6-0.2,0.9-1.4,1.3
	c-1.1,0.4-0.1,0.6,0.7,0.6c0.9,0,3-0.3,2.7,0.2c-0.4,0.5-1.4-0.1-2.1,0.8s-3.5,1.7-2,1.6c1.4,0,1.2-0.3,5.4-0.7
	c4.2-0.4,1.3,0,4.1-0.6c2.8-0.6,1.9-0.8,0.4-0.6c-1.5,0.2,1-1.1,0.7-2.2c-0.4-1.2-1.4,0-2-0.8c-0.7-0.7-0.6-0.9,0.7-0.7
	c1.2,0.3,1.1-0.2-1.3-1.3c-2.4-1.1-0.9-0.9-2-1.8c-1.1-0.9-2.9-0.8-2.9-0.8s0.8-0.3,1.3-1c0.5-0.7,0.6-0.6,1.1-1.4
	c0.5-0.8-0.5-0.7-1.8-0.5c-1.3,0.2-1.7,0.3-1.4-0.1s0.4-0.5,1-0.9c0.6-0.4,0.7-0.7-0.4-0.5c-1.1,0.2-1.3,0.2-2.2,0.5
	C231.3,72.1,232.2,72.8,231.6,73.9z M228.7,76.6c-1.9,0.5-1.4,0.9-1.1,1.1c0.3,0.2,0.9-0.2-0.9,0.6c-1.8,0.7-1.8,1.5-0.9,1.7
	c0.9,0.2,0.8-0.4-0.2,0.9c-1,1.3-1.7,2.2,0.4,1.9c2-0.3,2.6-1.1,3.6-1.2c1-0.1,1.2-0.6,1.2-1.5c0-0.8-0.7-0.9,0.1-1.5
	c0.8-0.7,0.8-1.4-0.7-1.8C228.7,76.5,229.9,76.3,228.7,76.6z M252.9,95.3c-0.1,0.2,0.1,0.7-0.7,1c-0.8,0.3,0.4,0.7,0.6,1
	c0.3,0.3,0.6-1.1,0.5-1.8C253.3,94.8,253.2,94.7,252.9,95.3z M252.5,98c-1.3,0.4-1.3,0.7-1.5,1.4c-0.1,0.7,1,0.1,0.7,0.7
	c-0.3,0.6,0,0.9,1.3,0.3c1.3-0.6,0.6-1.1,0.8-1.8C254,98,254.2,97.5,252.5,98z M272.1,105.3c-1.1-0.1-1.6,0.4,0.3,0.6s2.8,0.2,3.5,0
	c0.7-0.1,0.1,0-0.8-0.5C274.1,105,273.5,105.4,272.1,105.3z M282.7,105.7c-1.5-0.2-1.1,1.1,0.4,0.9c1.6-0.2,1,0.1,1.7-0.7
	C285.6,105.1,284.3,106,282.7,105.7z M244.4,99.6c-1.2,0.1-1.3,0.4-0.4,0.6c1,0.2,0.9,0,1.4-0.3C246,99.6,245,99.5,244.4,99.6z
	 M168.8,83.4c-0.8,0.4-1.7,1.1-2.7,2.5c-1.1,1.4-1,1.2-2,2c-1,0.8-0.5,0.6,2.7,1c3.3,0.4,3,0.8,3.7,0.6s0.9,0.3,0.9,0.8
	c0,0.5,0.7,0.2,1-0.5c0.3-0.7-0.3-2.1-1-2.8c-0.7-0.8-0.8-0.8-1.9-0.6s-0.7-0.2-1.1-0.8c-0.4-0.6-1-0.1-0.1-1
	C169.3,83.7,169.5,83,168.8,83.4z M69,81.8c0,0.7,1.1,2,1.9,2.4c0.8,0.4,0.7,0.2,0.3-0.7c-0.4-0.9-0.1-0.9-0.2-1.4
	C70.8,81.6,69,81.6,69,81.8z M74.5,85.9c0.2,0.2,0.9,0.8,2,1.4c1.2,0.5,1.5,0.6,2.6,0.9c1.2,0.2,1.7-0.1,0.9-0.6s-0.1-0.4-1.5-0.7
	c-1.4-0.2-1.7-0.1-2.4-0.5C75.5,86.1,74,85.5,74.5,85.9z M44.1,77.7c-0.9-0.1-1.3-0.2-1.9,0.2c-0.6,0.3-0.8,0.6-0.4,1
	c0.3,0.4,0.1,0.2,0.9-0.2c0.8-0.4,0.4-0.4,1.4-0.6c1-0.2,0.8-0.4,0.8-0.4S44.6,77.8,44.1,77.7z M43.7,76.8c-0.6,0.3-0.8,0.5-0.1,0.4
	c0.7-0.1,0.6-0.4,1-0.3c0.4,0.1,0.6-0.1,0.6-0.1S44.4,76.5,43.7,76.8z M26.4,74.8c-0.8,0.3-1.6,0-1.1,0.2c0.5,0.2,1.2,0.4,1.7,0.4
	c0.5,0,0.9,0,0.7-0.2c-0.2-0.2-0.2-0.2-0.3-0.4C27.5,74.5,27.3,74.6,26.4,74.8z M303,155.5c-0.9,1.5-3,0.8-4.5,1.8
	c-1.6,1.1-1.4,0.8-0.1,2.3c1.2,1.5-1,1.4-1.5,3.1c-0.5,1.8,0.7,1.5,1.3,3c0.7,1.5,0.9,1.1,2.2,0.9c1.2-0.2,2-0.6,2-0.6
	s0.2-1.3,1-3.3c0.8-1.9,1.3-3.4,1.5-4.6c0.1-1.3,0.3-2.2,0.7-1.8c0.4,0.4,0.4,0.4,0.4-0.2c0-0.6-0.5-2.4-1.2-2.8
	C303.3,152.5,303.9,154,303,155.5z M304.4,54c-1.3,0.2-1.9,0.8-1,1c1,0.2,0.9,0.1,2.4-0.3C307.4,54.3,305.7,53.8,304.4,54z
	 M328.9,37.1c-0.4-0.5-0.8,0.2-5.4,1.6c-4.6,1.4-4.5,0.2-8.8,2.6c-4.3,2.4-3.3,2.1-3.6,3.6c-0.3,1.5-1.2,0.8-1.7,2.1
	c-0.4,1.3-2.6,1.4-1.5,2.5c1.1,1.1,2.5,1.7,4.8,2.2c2.3,0.5,2.9,0,2.5-0.2c-0.5-0.2-2.3-2.1-1.9-4.3c0.4-2.2,1.5-1.9,2.5-2.7
	c1-0.8,3.6-3,5.3-3.7c1.7-0.7,6-1.7,8.3-2.2c0.1,0,0.1,0,0.2,0C331.2,37.1,329.3,37.6,328.9,37.1z M316.5,52c-0.5,0-0.8,0.1,0.2,0.8
	c1,0.7,1.9,1.2,1.5,0.3C317.9,52.1,317,51.9,316.5,52z M332.9,45.2c-0.7-0.2-1.1-0.5-1.3-0.1c-0.2,0.4,0.8,0.9,1.8,1.1
	C334.3,46.3,333.6,45.5,332.9,45.2z M160.9,86.8c-1.1-0.4-2.2-0.7-2.9-0.7c-0.7,0,0.1,0.5,1.3,1C160.4,87.5,161.5,87,160.9,86.8z
	 M158.2,90.1c0.1-0.7-0.6,0.8,0.2,1.1c0.8,0.3,1.2,0.4,1.8,0c0.5-0.4,0.1-0.1-0.6-0.2C158.9,90.9,158.2,90.6,158.2,90.1z
	 M485.5,67.3c-1.3,0.1-2.4-0.2-2.4-0.2s-0.1,0.8-0.5,1.1c-0.4,0.4-0.1,0.8-0.1,0.8s-1.3-0.4-2.1-0.6s-1.5,0-2-0.9
	c-0.4-0.8-1.8-0.7-2.8-0.7c-1,0-0.7-1-0.7-1s0,0-0.6,0c-0.6,0-0.5,1.1-1.4,1.5s-3.4,0.6-3.4,0.6s1.7,0.8,2,1.5s1,1.4,1,1.4
	s-0.1,0.3-2.1,0c-2-0.3-1.9,0.3-4,0.9c-2.1,0.6-4.6,1.6-5.2,1.9c-0.6,0.3-0.6,0.1-2.5-0.2c-1.9-0.3-2.3,0.4-2.7,0.5
	c-0.5,0.2-0.3-0.8-0.3-0.8s-0.7,0-1.5,0.3c-8.5,3.1-2.7,2.9-2.9,3.5l-0.9,2.4c-1.3,2.7-2.1,1.3-3.2,3.4c-3.4,6.7-5.3-1-5.3-2.8
	c0-1.1-0.3-2.5,0.6-2.8c8.4-2.8,0.8-0.4,8.7-4.2c2.5-1.2,1.2-2,1.7-2.3c0.6-0.3,1.5-0.4,1.5-0.4s0,0-1.4-0.1c-1.4-0.1-1.4,0.1-2.5,1
	c-1.1,0.8-2,1-1.7,0.3c0.2-0.6,0.3-1.3-0.6-1c-0.8,0.3-1.2,0.3-2.7,0.5c-1.5,0.2-3.2,0.7-4.6,2c-1.4,1.2-0.6,1.1-0.1,1.4
	c0.4,0.3-2.2,0.2-3.5,0.1c-1.3-0.1-0.6-0.2,0.1-0.4c0.7-0.2-1.1-0.3-2.8-0.6c-1.6-0.2-1,0.2-2,0.5c-1,0.3-0.9-0.2-1.4-0.3
	c-0.5-0.1-2.7-0.2-4.2-0.3c-1.5-0.1-1.4,0.1-1.8,0.4c-0.4,0.4-3.3,2.2-4.5,3.2c-1.2,1-2.8,1.2-4.2,2.2c-1.4,0.9-1.6,0.9-0.5,1
	c1.1,0.1,1.3,0.1,1.5,0.8c0.2,0.7,0.7,1,1.9,1c1.2,0,0.9,0.2,1.1-0.4c0.2-0.6-0.3-1.4,0.7-0.8c1,0.6,1.8,1,2.1,1.8
	c0.3,0.8-0.1,1.4-0.6,2.8c-0.5,1.4-0.7,3.3-1.4,4.3c-0.7,1-1.3,1.7-2.1,2.8c-0.8,1.1-4.6,3.8-5.5,4.1c-0.9,0.2-1.4,0.3-1.8-0.3
	c-0.4-0.5-0.7-0.4-1.7,0.2c-1,0.6-1.4,1-1.8,2c-0.4,1-1.2,1-2.1,1.7c-0.9,0.7-1.1,0.6-0.4,1.4c0.6,0.8,1.7,1.7,1.8,2.6
	c0.1,0.8-0.5,2-0.9,2.5c-0.4,0.5-2.4,0.8-2.3,0.5c0-0.2,0.1-1.5,0-2.2c-0.1-0.7-0.8-0.7-0.6-0.9c0.3-0.2,1.4-0.6,0.6-1.1
	c-0.8-0.5-1.4-0.1-1.7-0.7c-0.3-0.6,0.1-1.1,0-1.3c-0.2-0.2-0.7-0.5-1.9-0.5c-1.2-0.1-1.4,0.7-1.7,0c-0.3-0.7,0.1-0.8-0.4-1.1
	c-0.5-0.3-1-0.1-2.3,0.7s-1.6,0.6-2.7,1c-1.1,0.3-1.1,0.5-0.9,0.8c0.3,0.3,1.2,1.5,2,1.6c0.8,0.1,1.4-0.2,2.5-0.2
	c1.2,0,1.4,0.1,1.1,0.4c-0.3,0.3-1.1,0.6-2.6,1.7c-1.5,1-1,0.8-0.5,1.3c0.5,0.4,1.2,0.9,1.7,1.8c0.5,0.8,0,1.1-0.1,1.6
	c-0.1,0.5-0.2,1.2,0.8,1.9c1,0.7,0.3,0.5,0.2,0.8c-0.1,0.3-1.8,2.4-2.5,3.5c-0.7,1.1-0.7,1.2-3.2,2.4c-2.4,1.2-3.5,1.3-4.8,1.5
	s-2.4,0.4-3.1,0.6c-0.7,0.2-0.4,0.6-0.5,0.8c-0.1,0.2-0.7,0-0.6-0.3c0.1-0.4,0-0.6-0.3-0.7c-0.3-0.1-1.4-0.4-2.5,0.3
	c-1.1,0.7-2.4,0.8-2.8,1.7c-0.4,0.9-0.4,0.6,0.1,1c0.5,0.4,2.8,2,3.4,2.9c0.6,0.9,0.7,1.5,0.7,2.5c0,0.9-2.7,2.7-3.9,3.2
	c-1.2,0.6-1.5,1.1-1.3,0.2c0.2-0.9-0.5-1.4-1.4-2.1c-0.9-0.7-3.5-1.2-4-1.3c-0.5-0.1,0.2-0.6-0.1-0.6c-0.3,0-1.1-0.1-1,0.7
	s-0.8,0.6-1,1.5c-0.2,0.9-0.4,1.8,0.4,1.7c0.8-0.1,0.6,0.8,1.2,1.7c0.6,0.9,0.4,0.4,1.9,1.3s1.1,0.7,1.5,1.6c0.3,0.9,0.2,1.4,1,2.2
	c0.7,0.8,0.8,1-0.4,0.5c-1.2-0.4-2.3-1-2.7-1.5c-0.5-0.5-0.8-1.9-1.1-2.6c-0.3-0.7-2.3-1.5-3-2c-0.7-0.5-0.3-0.9,0.1-2
	c0.3-1.1-0.1-2.2-0.3-2.9c-0.1-0.7-0.9-2.6-1.3-3.3c-0.4-0.7-0.2-0.6-0.8,0c-0.6,0.6-1,0.9-1.6,0.9c-0.6,0-1.4-0.1-1.3-0.3
	c0.1-0.3,0.6-1.2,0.5-1.6c-0.2-0.4-0.7-1.6-1.5-2c-0.8-0.4-1.7-1-2.2-2c-0.5-1-0.6-0.7-1.6-0.2c-1,0.5-3.2,0.6-4.3,0.6
	s-0.2,0.4-0.4,0.8c-0.3,0.4-1.5,0.9-4,2.7c-2.5,1.9-2.9,1.9-3.6,2.1c-0.7,0.2-1.1,0.1-1,0.9c0,0.8,0.1,1.2,0,1.9
	c-0.1,0.7-0.4,1-0.7,1.4c-0.3,0.4-0.6,1.2-0.7,1.6c-0.1,0.4-0.7,0.9-1.5,1.3c-0.8,0.4-0.8,0.3-1.2-0.3c-0.4-0.6-2.3-3-3.9-5.2
	c-1.6-2.2-1.2-2.6-1.4-3.3c-0.1-0.6-0.2-4.5-0.1-4.8c0-0.2-0.8,0.5-1,0.8c-0.2,0.3-0.2,0.7-1.1,0.8c-0.9,0.1-1.1,0.1-1.9-0.5
	c-0.9-0.6-1.2-0.9-1.1-0.9c0.1,0,1.1-0.1,1.7-0.3c0.6-0.2,0.4-0.4,0.4-0.4s-0.6,0-1.3,0.1c-0.7,0-0.4-0.1-1.4-0.4
	c-1-0.3-1.2-0.3-1.3-0.6c-0.2-0.3-0.4-0.7-0.5-1c-0.1-0.2-0.2-0.2-0.4-0.5c-0.2-0.3-0.6,0-1.7,0.1s-0.8,0-2,0.4
	c-1.2,0.3-1.4,0.2-2.8,0.2c-1.4,0-2.4-0.5-3.1-0.6s-0.8-0.1-1.9-0.2c-1-0.1-0.8-0.5-1.1-0.8c-0.3-0.3-0.7-0.4-2.1-0.3
	s-1.4,0-2.2-0.1c-0.8-0.1-0.8-0.3-1.5-0.8c-0.7-0.5-0.4-0.1-0.9-0.3c-0.4-0.2-0.9-0.6-1.2-1.2c-0.3-0.6-0.3-0.8-0.7-1.1
	s-0.4-0.2-1.6-0.2s-0.7,0.1-0.8,0.1c-0.1,0.1-0.5,0.4-0.9,0.7c-0.3,0.3,0.3,0.7,0.8,1.1c0.5,0.4,0.1,0.4,0.8,1s0.5,0.6,1.1,1.4
	c0.5,0.9,0.9,1.1,1,1.3s0.2-0.1,0.4-0.3c0.1-0.2-0.1-1.1-0.1-1.1s0.2,0.3,0.4,1c0.2,0.6,0.1,0.6,0.2,1c0.1,0.4,0,0.3,0.9,0.3
	c0.9,0,1.5,0,2.5-0.1c1-0.2,1.5-0.8,2-1c0.5-0.2,0.5-0.9,0.8-0.8c0.3,0.1,0,0.8,0.3,1.3c0.3,0.5,0.4,0.3,1.1,0.5
	c0.7,0.2,0.9,0.3,1.7,0.5s0.2,0.2,0.6,0.7c0.4,0.5,0.4,0.2,0.8,0.4c0.4,0.2,0.2,0,0,0.7s-0.3,0.6-1,1.1c-0.7,0.5-0.7,0.3-0.7,0.3
	c-0.1,0-0.3-0.4-0.3-0.4s-0.4,0.6-0.5,1.3c-0.1,0.7,0.3,0.4-0.9,0.8c-1.2,0.3-1.9,0.5-2.4,0.8c-0.5,0.3-0.5,0.7-0.7,0.8
	c-0.3,0.2-0.6,0-1.4,0.2c-0.8,0.2-0.6,0.2-1.2,0.5c-0.7,0.4-0.1,0.3-0.9,0.6c-0.9,0.2-2.4,0.8-3.2,0.8c-0.8,0.1-0.6,0.2-0.8,0.4
	c-0.2,0.2-0.2,0.3-1.2,0.4c-1,0.1-2.3,0.2-2.9,0.4c-0.6,0.2-1.5,0.7-2.2,0.6c-0.7-0.1-0.5-0.1-0.7-0.5s-0.3-0.7-0.4-1.4
	c-0.1-0.7-0.4-1.7-1-2.4c-0.5-0.7-0.5-0.7-1.1-1.4c-0.6-0.7-1-1.3-1.5-1.5c-0.5-0.3-0.8-0.3-1-0.5c-0.2-0.2-0.1-0.9-0.4-1.5
	c-0.3-0.6-0.4-1.1-0.8-1.5s-1-0.7-1.5-1.4c-0.5-0.7-0.6-0.8-1.3-1.8c-0.8-1.1-1.1-1.2-1.6-1.9c-0.5-0.7-0.2-0.6-0.4-1
	c-0.2-0.4-0.7,0.7-1.1,0.9c-0.4,0.2-0.6,0.1-0.9-0.5c-0.3-0.6-0.6-1.2-0.8-0.9s-0.4,0.5-0.1,1.2c0.3,0.7,0.5,0.5,0.9,1.2
	c0.4,0.6,1.6,2.2,2.1,2.9c0.5,0.7,0.3,0.3,0.7,1.3c0.4,1,0.7,1.1,1.3,1.5c0.6,0.4,0.5,0.2,0.7,0.9c0.3,0.7,0.2,1.5,0.2,1.9
	c0,0.4,0.4,0.6,1.1,1c0.7,0.4,0.4,0.3,0.7,0.7c0.3,0.4,0.7,1.1,0.8,1.5c0.2,0.4,0.4,0.7,1,0.9c0.6,0.2,0.7,0.2,1.2,0.4
	c0.5,0.1,0.4,0.2,0.7,0.6c0.4,0.3,1.1,0.6,1.5,1.1c0.4,0.5,0.1,0.4,0.1,0.9c0,0.5-0.3,0.3,0.1,0.6s0.9,0.5,1.8,0.9
	c0.9,0.4,0.2,0.1,1,0.1c0.9,0,1-0.2,1.9-0.3c0.9-0.1,2.1-0.4,3.2-0.6s2.2-0.3,2.8-0.4s0.6,0.3,0.1,1c-0.4,0.7-0.7,1.3-1,1.8
	c-0.4,0.6-0.5,0.6-0.8,1.1c-0.3,0.5-2.1,2.3-2.5,2.9c-0.4,0.6-0.9,1.1-1.4,1.5c-0.6,0.5-2.3,1.4-3.1,1.8c-0.8,0.5-0.6,0.5-1.2,1
	c-0.6,0.6-2.5,2.1-3,2.6c-0.5,0.5-0.8,0.7-1.2,1.3c-0.4,0.5-1.4,1.3-1.5,1.7c-0.1,0.4-0.7,0.4-0.2,0.8c0.4,0.3,0.7,0.4,0.9,0.8
	c0.2,0.4-0.5,0.9-0.1,1.7s0.1,0.2,0.8,0.9c0.6,0.6,0.6,1,0.7,1.9c0.1,0.9,0.1,1.8-0.1,2.4c-0.2,0.6-0.5,1-0.8,1.5s-1.9,0.9-2.8,1.2
	s-0.9,0.2-1.3,0.5c-0.4,0.4-1.6,1.1-2.1,1.7c-0.4,0.6-0.7,0.5-0.6,0.9s0.5,0.8,0.9,1.5c0.4,0.7,0.1,0.6,0,1.2
	c-0.1,0.6-0.1,0.5-0.2,1.2c-0.1,0.7-1.3,0.7-2.6,1.1c-1.3,0.4-0.8,0.2-1,0.7c-0.1,0.5-0.1,1.5-0.1,2.1c-0.1,0.6-0.4,0.4-1.2,1.1
	c-0.7,0.7-1,1.1-1.8,2c-0.8,0.9-0.7,0.8-1.7,1.3c-1,0.6-1.7,0.7-2.1,1.3c-0.4,0.6-0.9,0.2-3,0.7c-2.1,0.5-0.6,0.2-2.5,0.4
	c-2,0.2-2.7,0.3-3.7,0.4c-1,0.1-0.9,0-1.5-0.5c-0.6-0.5-0.7-0.5-1-0.9c-0.3-0.4-0.1-0.5-0.2-1.3c-0.1-0.7-0.2-0.8-0.6-1.2
	c-0.4-0.5-0.4-0.5-0.8-1.3c-0.4-0.7-0.6-0.9-1.1-1.4c-0.5-0.5-0.6-0.3-1-0.7c-0.4-0.3-0.4-0.6-0.6-1.1c-0.1-0.5-0.2-1.5-0.5-2.7
	c-0.2-1.1,0-0.5-0.3-1c-0.2-0.5-0.5-1.1-1-1.7c-0.4-0.6-0.3-0.5-0.9-1.3c-0.7-0.8-0.6-0.7-1-1.4c-0.4-0.7-0.5-0.4-0.5-0.6
	c0-0.3,0.2-0.7,0.2-1.2c0-0.5,0.2-1,0.4-1.7s-0.2-0.7,0.2-1.2c0.4-0.5,0.9-0.9,1.1-1.5c0.3-0.6,0.2-0.6,0.2-1.3
	c0-0.7-0.1-0.6-0.4-1.2c-0.3-0.6-0.4-1.3-0.8-2.2c-0.4-0.9-0.4-0.9-0.4-1.3c0-0.4-0.3-1.2-0.5-1.7c-0.2-0.5-0.4-0.3-0.9-0.6
	c-0.6-0.3-0.2-0.2-0.7-0.5c-0.5-0.4-0.4-0.5-0.9-0.9c-0.5-0.4-0.5-0.4-0.9-0.8c-0.4-0.4-0.2-0.2-0.1-0.9c0-0.7,0.4-2.1,0.5-2.9
	c0.2-0.8,0.2-0.8-0.2-1.1c-0.4-0.3-0.7-0.8-1.1-0.9c-0.3-0.1-1.2,0.1-2.3,0.1c-1.2,0-1.1-0.2-1.6-0.6c-0.5-0.4-1.2-1-1.4-1.2
	c-0.2-0.2-0.7-0.1-2.7,0c-2,0.1-0.8,0.1-2.2,0.3c-1.3,0.1-1.9,0.7-2.9,0.9c-1,0.3-1.3,0.2-3.2-0.1c-1.8-0.3-2.7,0.3-3.7,0.6
	c-0.9,0.3-1.4,0.1-2-0.2c-0.7-0.3-1.1-0.6-2.1-1s-0.8-0.6-1.8-0.9c-1-0.4-0.7-0.4-1.5-0.9c-0.9-0.6-0.9-1.1-1.5-1.7
	c-0.6-0.6-1.1-1.4-1.9-2.1c-0.8-0.6-1.6-1.9-2-2.3c-0.4-0.4-0.7-0.4-0.7-0.6c0-0.2,0.8-1.2,1.1-1.8s0.4-0.5,0.5-0.8
	c0.1-0.3-0.2-1.3-0.5-1.9c-0.3-0.5-0.6-1.7-0.9-2.2c-0.2-0.5,0.1-0.5,0.4-0.9c0.3-0.3,1-0.9,1.7-1.9c0.7-0.9,1.1-1.4,1.5-1.8
	c0.4-0.4,1.2-1.8,1.8-2.1c0.6-0.4,2-1.1,2.6-1.3c0.6-0.2,1.1-0.3,1.2-0.5c0.1-0.2,0.4-1.8,0.5-2.5c0.2-0.7-0.1-1.1,0.6-1.3
	c0.7-0.3,1.8-0.8,2.4-1c0.6-0.2,0.7-0.6,1-1.1c0.3-0.5,0.4-1.1,0.9-1.3c0.4-0.2,0.3,0.1,0.9,0.4c0.6,0.3,0.7,0.3,1,0.3
	c0.3,0,0.5-0.2,1.2-0.2c0.7,0,0.8,0.1,1.2,0.2c0.4,0.2,0.2,0.2,1.4-0.4c1.2-0.5,2.1-0.8,3.6-1.2c1.5-0.4,2.6-0.6,3.3-0.7
	c0.7-0.1,0.4,0,1.2,0.2c0.8,0.2,0.8,0.3,1,0.2c0.2-0.2,0.7-0.6,1-0.6c0.3,0,0.7,0.1,1.6,0.2c0.9,0.1,1.2,0,1.6-0.1
	c0.4-0.1,0.8-0.4,0.9-0.4c0.1,0,0.8,0.2,1.4,0.3c0.6,0.2,0.6,0.2,0.5,0.3c-0.1,0.1-0.3,0.2-0.6,0.7s-0.1,0.2,0.1,0.7
	c0.3,0.5,0.5,0.5,0.4,0.8c-0.1,0.4-0.7,0.7-1.1,1c-0.4,0.3-0.3,0.4,0.7,0.8c1,0.4,0.8,0.3,1.9,0.7c1.1,0.4,1.2,0.2,2.5,0.5
	c1.3,0.3,1.2,0.3,1.6,0.7s0.5,0.7,1.3,0.9c0.8,0.2,1.7,0.2,2.1,0.4c0.5,0.2,0.8,0.5,1.5,0.6c0.6,0.1,0.6,0.1,0.9-0.2
	c0.3-0.3,0.5-0.6,0.4-0.8c-0.1-0.2-0.4-0.4-0.4-0.6c0.1-0.2,0.6-0.8,0.8-1c0.2-0.2,0.6-0.2,1.6-0.3c1,0,1.7-0.1,1.8,0.3
	s0.1,0.2,0.9,0.4c0.8,0.2,0.8,0.2,1.5,0.4c0.6,0.2,0.3,0.4,0.6,0.4c0.3,0,0.9,0,1.5,0.1c0.6,0.1,1.7,0.5,2.9,0.5
	c1.2,0,1.6-0.2,1.8-0.3c0.2-0.1,1-0.8,1.5-0.3c0.5,0.5,1.1,0.5,2.3,0.5s1.2-0.2,1.5-0.4c0.3-0.2,1-1.1,1.2-1.6
	c0.2-0.6,0.9-1.8,1.1-2.4c0.2-0.6,0-1-0.1-1.4c-0.1-0.3,0.1-0.6,0.2-0.9c0.2-0.4-0.6-0.1-0.9-0.1c-0.3,0.1-0.4-0.1-0.7-0.2
	c-0.3-0.1-0.6-0.1-0.8,0.3c-0.2,0.4-0.1,0.6-1.3,0.5c-1.2,0-0.9-0.1-1.3-0.4c-0.4-0.3-1-0.4-1.5-0.5c-0.5-0.1-0.6-0.1-0.6,0.1
	c0,0.2-0.1,0.4-0.4,0.5c-0.4,0.1-1.2,0-1.9-0.3c-0.7-0.2-0.9-0.4-1.6-0.8c-0.7-0.5-0.6-0.5-0.9-1.2s-0.3-1.4-0.2-1.6
	c0.1-0.2,0.3-0.3-0.2-0.2c-0.5,0.1-0.9,0.2-0.5-0.4c0.4-0.6,0.7-0.6,1.1-0.7c0.4-0.1,0.9-0.1,1.7-0.1c0.7,0,1.3-0.3,1.5-0.4
	c0.2-0.1,0.8-0.2,0.5-0.2c-0.3,0-1-0.1-0.9-0.3c0.1-0.2,0.2-0.1,0.7-0.2c0.4,0,1.1,0,1.7-0.1c0.6,0,0.9,0,1.1-0.2
	c0.2-0.2,0.4-0.6,0.9-0.8c0.4-0.2,0.9-0.1,2.1-0.1c1.2,0,1,0.2,1.3,0.4c0.4,0.2,0.6,0.1,1.1,0.2c0.5,0.1,0.2,0.3,0.6,0.4
	c0.4,0.1,1.1,0.2,1.9,0.4c0.8,0.2,0.3,0.1,1.3,0.1c1,0,1,0,1.8-0.1c0.8-0.1,1.2-0.3,1.7-0.6c0.6-0.3,0.2-0.9,0-1.4
	c-0.2-0.5-1.1-0.8-1.5-1c-0.4-0.2-1.3-0.9-1.8-1.2c-0.5-0.3-1-0.4-1.5-0.6c-0.5-0.2-1.5-0.5-1.5-0.8c-0.1-0.3,0.2-0.3,1-0.4
	c0.8-0.1,0.5-0.2,0.7-0.5c0.1-0.3,0.2-0.3,0.9-0.4c0.6-0.2-0.7-0.5-0.9-0.7c-0.2-0.2,0.4-0.1,1.1-0.2s0.7-0.3,0.8-0.5
	c0.1-0.2,0.1-0.3-0.7-0.3c-0.7,0-1.7,0.2-3,0.5c-1.3,0.2-0.7,0.2-1.5,0.7c-0.8,0.4-0.8,0.2-0.7,0.5c0.1,0.2,0.1,0.5,0.9,0.7
	c0.8,0.3,0.4,0.3,0.7,0.3c0.2,0,0.7,0.1,0.5,0.1c-0.2,0-0.4,0.3-0.8,0.3c-0.4,0-0.5,0.3-1.1,0.5c-0.6,0.2-0.9,0.3-1.3,0.3
	c-0.4,0-0.7,0-0.7-0.6c0.1-0.5-0.2-0.2-0.7-0.3c-0.5-0.1-0.6-0.3-0.6-0.3s0.5-0.1,0.9-0.3c0.5-0.2,0.7-0.3,0.9-0.7
	c0.2-0.4-0.5-0.2-1-0.2s-0.4-0.1-0.9-0.1s-0.7-0.3-0.7-0.3s0.2,0.1,0.7,0c0.4,0,0.3-0.1,0.5-0.2c0.2-0.1,0.3-0.2,0.2-0.2
	c-0.1,0-0.7,0-1,0c-0.4,0-0.6-0.1-1.1,0s-0.3,0.2-0.7,0.4c-0.4,0.2-0.4,0.2-0.6,0.5c-0.2,0.3-0.3,0.2-0.4,0.4
	c-0.1,0.2-0.1,0.6-0.1,0.9c0,0.3-0.1,0.4-0.3,0.6c-0.2,0.2-0.2,0.1-0.6,0.3c-0.4,0.1-0.1,0.2-0.2,0.5c-0.1,0.3-0.2,0.4-0.2,0.8
	c0,0.4-0.2,0.4-0.5,0.6c-0.3,0.3-0.5,0.3-0.5,0.5s-0.1,0.4,0,0.9s0.3,0.4,0.9,0.9c0.6,0.5,0.9,0.3,0.7,0.6c-0.2,0.3-0.2,0.2-0.9,0.1
	c-0.7-0.1-0.8,0-1.3,0.4c-0.5,0.3-0.6,0.5-0.9,0.7c-0.3,0.1-0.2-0.2-0.3-0.4c-0.1-0.2-1.2-0.2-2-0.4c-0.8-0.2-1-0.3-1.2-0.3
	c-0.2,0-0.5,0-1.3,0.3c-0.8,0.3-0.6,0.5-0.6,0.9c0.1,0.4,0.7,0.5,0.5,1.5c-0.2,1,0.7,0.5,1.1,1.1c0.4,0.6,0,0.6-0.2,0.6
	c-0.2,0.1-0.4,0.6-0.6,1.1c-0.2,0.5,0,0.6-0.2,0.5c-0.2,0-0.4,0.1-0.8-0.3c-0.4-0.4-0.7,0-0.8-0.3c-0.1-0.2-0.5-0.6-0.4-1.2
	c0.2-0.5,0.5-0.6-0.2-0.9c-0.7-0.3-0.5-0.3-0.8-0.9c-0.3-0.6-0.4-0.7-1-1.2c-0.6-0.5-0.6-0.4-0.4-0.9c0.2-0.5,0.3-1.2-0.1-1.6
	c-0.4-0.4-1.9-1.4-3.2-1.9c-1.3-0.5-1.5-0.1-2.1-0.9c-0.6-0.8-0.8-1.6-1.8-2c-0.9-0.5-0.5-0.5-1.4-0.3c-0.9,0.2-0.9,0.3-0.8,0.5
	c0.1,0.2,0.3,0.4,0.1,0.9c-0.1,0.5-0.3,0.3,0.6,0.7c0.9,0.4,0.5,0.3,1,1s0.5,0.9,0.9,1.2c0.4,0.3,0.5,0.6,1.4,0.7
	c0.9,0.1,0.8,0,1,0.1c0.2,0.2-0.7,0.2-0.5,0.3c0.2,0.1,0.4,0.3,1.2,0.6c0.8,0.3,1.6,0.7,1.8,1s0.9,1.3-0.1,0.5c-1-0.8-1-0.4-1.3,0.1
	c-0.3,0.5,0.3,0.9,0.2,1.3c0,0.4-0.5,0.2-0.8,0.5s-0.5,0.7-0.9,0.9c-0.4,0.2-0.3-0.2-0.5-0.2c-0.2,0-0.3,0.2-0.5,0.5
	c-0.3,0.4,0,0.5,0.1,1s0.3,0.5-0.4,0.5c-0.7,0-0.6-0.5-1.2-0.8c-0.7-0.3-1.1-0.2-1.6-0.5c-0.6-0.2,0.2-0.3,1.7-0.4
	c1.4-0.1,1.6-0.2,2-0.5c0.4-0.2,0.3-0.3,0.7-0.8c0.5-0.5,0-0.7-0.3-1.2c-0.3-0.6-0.9-0.8-1.1-0.9c-0.2-0.1-0.7-0.4-1.1-0.8
	s-0.8-0.4-1.6-0.5s-0.6-0.6-1-0.7s-0.8-0.5-1.7-1.1c-0.9-0.6-0.6-1-1-1.6c-0.4-0.5-0.8-0.9-1.7-0.9c-0.9,0-1.6,0.4-2.5,1.1
	c-0.9,0.6-0.7,0.9-1.8,0.4c-1-0.5-1.4-0.4-2.2,0c-0.7,0.4-0.9,0.9-0.9,1.8c0,0.9-0.9,0.5-1.6,0.8c-0.7,0.2-1.3,0.9-2.4,2.3
	c-1.1,1.5,0.1,0.8-0.1,1.3c-0.2,0.5,0.1,0.9-0.9,1.5c-1,0.6-0.6-0.1-1.2,0.4c-0.6,0.5-1.4,0.9-2.8,0.8c-1.4-0.1-1,0.3-1.9,0.4
	c-0.9,0.1-1.4,0.4-1.2-0.3c0.2-0.7,0-0.6-1.7-0.6c-1.7,0-2.3,0.4-2.2,0.2s0.2-0.5,0.4-1.2c0.2-0.7,0.4-0.9,0.2-0.9
	c-0.3,0-0.8,0.1-0.4-1.1c0.4-1.2,0.6-1.5,0.4-2.2c-0.2-0.7,0.1-1.7-0.1-2.1s0.4-0.8,0.1-1.1c-0.3-0.2-0.6-0.5-0.4-0.5s1.2,0,2.4,0.2
	c1.2,0.1,2.4-0.1,3.1-0.1s2.2,0.3,3.7,0.4c1.5,0.2,1.5-0.1,1.3-1.7c-0.1-1.6,0.1-2.3-0.3-2.6c-0.4-0.3-0.9-0.3-1.4-0.7
	c-0.5-0.4-0.1-1-1.2-1.3c-1-0.2-2.2,0-1.7-0.2c0.6-0.1,0.8-0.2,0.2-0.5c-0.6-0.3-0.8-0.7-0.3-0.7c0.4,0,1.7,0,1.7,0s0.1,0.4,0.8,0.2
	s1.5-0.4,1.4-0.7c-0.2-0.3-0.5-0.7-0.4-0.7c0.1,0,0.4,0.4,1.8,0.4s1.3-0.1,1.2-0.6c-0.1-0.4,0.9-0.4,1.7-0.7
	c0.7-0.3-0.3-0.7-0.1-1.1c0.1-0.3,1-0.5,2.4-0.6c1.5-0.1,1.2-0.2,1-0.4c-0.1-0.1,0-0.6,0.1-1.3c0.1-0.7-0.1-0.9,0.6-1.2
	c0.7-0.3,0.5-0.2,2.1-0.3c1.5-0.1,0.6-0.3,0.9-0.4c0.3,0,2.1-0.4,2.4-0.5c0.3-0.1,0.3-0.1,0-0.5c-0.3-0.5-0.7-0.7-1-2.9
	c-0.3-2.2-0.3-2.2,1.6-2.6c1.9-0.4,1.5-0.3,1.3,0.9c-0.1,1.2-1,1.2-1.2,2.1c-0.2,0.9,0,1.4,0.7,2.4c0.8,0.9,0.7,0.5,2.4,0.5
	c1.7,0,1.3,0.3,2.4,0.6c1.1,0.3,0.7-0.5,1.8-0.8c1.1-0.3,0.9,0.2,3.4-0.1c1-0.1,1.3-0.1,1.4-0.1c-0.1,0-0.4,0-0.1-0.1
	c0.6-0.2,0.7-0.7,1.6-0.8c0.9-0.1,1.5,0.2,1.4-0.8c0-0.9-0.5-0.8-0.4-1.5c0.1-0.7,0.2-0.4,0.3-1c0.1-0.6-0.1-0.7,1-0.9
	c1.1-0.2,0.3,0.7,1.6,0.9c1.3,0.2,1.1,0.3,1.4-0.4c0.2-0.7,0.9-1.7,0.3-1.6c-0.6,0-0.8,0-1.4-0.7c-0.6-0.7-1-0.8-0.6-0.8
	c0.4,0,1.8-0.3,3.8-0.2c2,0,2.5,0.2,2.7,0c0.1-0.1-0.3-0.3,0.3-0.6c0.7-0.3,2.9,0.1,2.5-0.1c-0.3-0.3-2.3-0.6-3.6-0.5
	c-1.3,0.1-4.5,0.4-5,0.4c-0.5,0-1.4-0.3-1.6-0.4c-0.2-0.2-0.9-0.3-0.9-1.1s0.4-1.1-0.3-1.9c-0.7-0.8,1.2-1.5,2.5-2.3
	c1.3-0.8,1-1.5,1.8-1.6c0.8,0,1.1-0.3,0.7-0.6c-0.4-0.3-1.8-1.2-2.4-1.3c-0.7-0.1-1.7-0.6-2.7,0.6c-1,1.3,0.1,1.4,0.3,2.1
	c0.2,0.7-1.5,1.2-2.7,1.8c-1.2,0.6-1.7,0.5-2.1,2.1c-0.4,1.6-0.7,1.6,0.6,2.2c1.4,0.5,1.7,0.8,1,1.3c-0.6,0.5-2,0.4-2.8,1.6
	c-0.8,1.1-0.5,1.7-0.8,2.2c-0.3,0.5-1.4,0.7-1.7,1.2c-0.3,0.5-0.3,1.4-1.6,1.3c-1.3-0.1-0.6-1.4-1.1-2c-0.6-0.6-1-1.1-1.7-1.9
	c-0.7-0.8-0.1-1.5-0.8-1.9c-0.6-0.4-0.8-1.2-0.8-1.2s0,0-0.2,0.4c-0.2,0.4-0.1,0.6-1.4,1.7c-1.3,1.1-3.2,1.2-4.1,0.9
	c-0.9-0.3-0.8-0.9-0.8-1.7s-0.2-1.9,0-3.2c0.2-1.3,0.7-1.2,2.7-2c2-0.8,2-0.8,2.5-1.3c0.5-0.5,1.9-1.3,2.7-1.8
	c0.8-0.5,2.3-2.4,3-3.7c0.7-1.3,2.1-2.2,3.5-3.6c1.4-1.4,3.7-2.7,6.8-3.6c3.1-0.9,2.5-1,3.3-1.7c0.7-0.7,1-0.3,2.2-0.5
	c1.2-0.2,1,0-0.2,0.8c-1.2,0.8-1.7,1.7-0.7,1.1c1-0.7,1.8-1.5,3.4-1.4c1.6,0,0.9,0,2.5,0.5s1.8,0.5,0.9,0.9s-2.3,0.3-2.3,0.3
	s0.5,0.8,1.9,0.9c1.4,0.1,2.2-0.8,3.1-0.4c0.9,0.3,1.2,0.6-0.1,0.5c-1.3-0.1-1.6,0.5-0.1,0.9c1.6,0.4,1.7,0.4,3.8,0.6
	c2.1,0.2,3,1.3,4.5,1.7c1.6,0.5,3.4,0.1,2.9,1.1c-0.5,1,0.4,2-2.3,2.5c-2.7,0.5-2.7-0.1-4.9-0.6c-2.3-0.5-3.9-1-3.9-1
	s0.6,0.6,1.6,1.3c1,0.7,1.2,1.3,1,2.6c-0.1,1.3-0.6,1.6,1.2,2.2c1.8,0.6,1.5,0.4,2.1,0.3c0.6-0.1,1.5-0.2,1.3-0.4
	c-0.2-0.2-0.4-0.6-1-0.8c-0.6-0.2-0.6-0.7,0-0.9c0.6-0.2,1.2,0.2,2.5,0.1c1.3,0,0-0.3,0.6-0.8c0.6-0.5,0.7-1.3,2.2-1.7
	c1.5-0.4,3.2,0.2,3.6-0.3c0.4-0.5,0.9-1,0-1.7c-0.9-0.7-1.5-1-1-1.3c0.5-0.3,1.6-1.3,2.1-0.7c0.5,0.5,1.7,1.1,0.1,1
	c-1.6-0.1-0.5,1.7,0.9,1.6c1.4-0.1,1.3-0.4,2.5-0.8c1.2-0.4,3.4-1.7,5.1-2.1c1.6-0.4,2-0.3,2.6-0.1c0.6,0.2,0.6,0.6,2.4,0.3
	s2.3-0.5,3.9-0.7c1.7-0.2-0.1,0.4,0.6,0.6c0.7,0.2,0.8,0.3,1.4,0c0.6-0.3,2.4-0.7,1.5-1.2c-0.8-0.4-1.4-0.7-1.4-0.7s0.6-0.9,2.2-0.9
	c1.6,0.1,4,1.1,5.5,1.9c1.5,0.7,3.4,2.3,3.4,2.3s0.7-0.8,0.1-2.2c-0.6-1.4-2-1-2-2.3c0-1.3-1.3-0.9-0.9-1.9c0.4-0.9,1.7-1.3,2.1-2.4
	c0.3-1.2,0.6-2.1,1.8-2.1s3.7,0.2,3.7,0.2s0,1.1-0.9,2.7c-0.9,1.6,0.5,1.8,0.3,3.7c-0.2,1.9-0.3,2.2,0.4,2.6c0.6,0.4,1.8,1,1.4,1.8
	c-0.4,0.8-0.7,1.4-2.4,1.8c-1.7,0.5-3.8,0.2-3,0.6c0.8,0.4,1.8,0.7,2.9,0.8c1.1,0.1,0.6,0,1.5-0.6c0.9-0.5,2.9-1.6,2.8-2.1
	c-0.1-0.5-1.2-1.3-0.4-1.6c0.7-0.4,1-0.9,2.2-0.5c1.2,0.5,2.3,2.2,2.3,2.2c0-0.1-0.2-1.7-1.6-2.7c-1.4-1-3.7,0-3.7-0.9
	s0.6-2.1,0.5-3c-0.1-0.9-0.7-1.9,0.2-2.7c0.9-0.8,0.9-1.5,0.9-1.5s0.4,0.8,0.1,1.7c-0.3,1,0.1,1.5,0.8,1.5c0.6,0,3.5,0,2-0.3
	c-1.5-0.3-2-0.6-0.4-1.2c1.5-0.6,1.5-0.2,3.7,0.2s2.8,0.6,3.5,0.6s0.6-0.1,0.4-0.5c-0.3-0.5-0.6-0.8-1.3-1.1s-1.2,0.1-1.4-0.4
	c-0.2-0.5-0.6-1.7-0.8-2.2c-0.2-0.5,0.6-0.1,1.8-0.1s4.5-0.1,7-0.2c2.5,0,0-1.9-0.1-3.2c-0.2-1.3,4.6-1.4,7-1.6
	c2.4-0.2,5.1-0.2,9.5-0.9c4.4-0.7,1.6-0.6,2.2-1.5c0.6-0.9,1.7-1,3-1s2.5,0.2,2,0.3c-0.5,0.1-2,0.6,0.3,1c2.3,0.3,1.7,0.3,0.5,0.6
	c-1.2,0.3-0.2,0.8,2.1,0.8c2.3,0,0.9-0.1,0.6-0.7c-0.4-0.5,0.3-0.3,2.3-0.1s2.7,0.4,3.7,1.1c1,0.7,1.2,0.5,1.6,1.5
	c0.4,1,0,0.8-1.6,1.7s-2.6,0.9-4.9,1.9c-2.3,1-1.8,1.6-3,2.3c-1.3,0.7-0.9,0.5,1.8,0c2.7-0.5,4.2-0.8,5.5-0.7
	c1.4,0.1,2.1,0.5,3.1,0.5c1,0-0.1,0.1,3.2,0.1s2.8,0,1.6,0.7c-1.2,0.7,0.2,0.9,1.7,0.9c1.5,0,3.3,0,4.6-0.1c1.4-0.1,0.2-0.9,1.8-0.9
	c1.6,0,2.1-0.1,3.9-0.1c1.7,0,1.2,0.5,1.8,0.9c0.6,0.4,1.4,0.7,0.9,1.6c-0.6,0.9-0.9,0.9-0.5,2.1c0.3,1.2,1.2,1.4,2.3,1.6
	s1-1.1,2.1-1.5c1-0.4,1.2,0.9,2.4,0.7c1.2-0.2,2.5-0.1,3.5,0.1c1,0.2,1.9,0.3,3.3,0.1c1.4-0.2,1-0.6,0.5-1.2
	c-0.5-0.6-0.5-0.6,0.4-1.2c0.9-0.6,1.5-0.3,4.4,0.2c2.9,0.5,2,0.5,3.6,0.9c1.7,0.3,1.1,0.2,3.6,1.1c2.5,0.8,2,1.8,3.2,2.3
	c1.2,0.5,1.2,0,3.6-0.1c2.3-0.1,2.3,0.2,4.8,0.7c2.5,0.5,1.9,1.1,1.9,1.6c0,0.5-0.7,0.9,0.9,1.2c1.6,0.2,2.2,0.5,3.6,0.2
	c1.3-0.2,0.1,0.2,3.1,0.3c3,0,2-0.2,2.9,0.2c0.9,0.4,1.1,1.3,2.6,1.2s1.4-0.1,0.7-1c-0.6-0.9-1-1.1-0.1-1c0.9,0,2.6,0.3,5.9,0.7
	c3.3,0.4,3.4,0.8,6,2c2.7,1.2,3.4,1.3,5.4,2.4c0.7,0.4,0.9,0.5,0.9,0.6c0.1,0,0.3,0,1,0.3c2.1,0.7,1.7,0.5,3.5,1.1
	c1.8,0.6,3.3,1.5,3.3,1.5S486.9,67.2,485.5,67.3z M310.7,92.5c0,0-0.2,0.2,0.9-0.4c1-0.6-0.5,0-1.1-0.1c-0.6-0.1-0.8-0.3-0.6-0.9
	c0.2-0.5-0.1-0.5-0.7-1.3c0,0-0.3-0.1-1,0.1c-0.7,0.3-1.1-0.3-2-0.1c-0.9,0.2-1.8,0.1-2.3,1c-0.5,0.9-1.1,0.3-1.3,1.1
	c-0.2,0.7-1.8,1.1-1.8,1.1s0.6,0.4,1.1,0.9c0.5,0.4,0.1,0.1,0.6,1.5c0.5,1.4,0.8,1.3,1.5,1.5s1.7,0.7,1.7,0.7s-0.6-0.3-0.6,0.5
	s-1,1.3-0.9,2.4c0.1,1.1-1.4,2.1-0.2,2.2c1.2,0.1,0.8,0.5,2.1,0.7c1.3,0.2,2.1,0.4,4,0.4c1.9,0,0.9-0.5,0.6-1.3
	c-0.3-0.8-0.4-1.3-0.5-2.1c-0.1-0.8-0.5-0.6-0.8-1.1c-0.3-0.5,0.1-0.8,1-0.8c0.9,0,1,0,0.5-0.6c-0.5-0.6-0.2-0.8-0.8-1
	c-0.6-0.2-0.9,0.8-0.9,0.8s-0.4-0.2-0.2-1.3c0.1-1,0.3-0.5-0.2-0.7c-0.4-0.2-0.7,0-1.3-0.6c-0.6-0.7-0.1-0.5-0.8-1.4
	c-0.7-0.8-0.3-0.4,0.4-0.4s0.4-0.1,0-0.4c-0.4-0.3-0.6-0.7,0.4-0.6c1,0,2.3,0.2,2.8,0.2C310.9,92.4,310.7,92.5,310.7,92.5z
	 M170.9,54.4c-0.3,0.4,0.6,1,1.3,0.8s0.9,0,1.3-0.2s0.4-0.5,0-0.9c-0.5-0.3-0.3-0.5-0.4-0.5C172.2,53.2,171.3,54,170.9,54.4z
	 M356.2,27.1c-1,0-2.1,0-1.2,0.3c0.9,0.2,0.6,1.3,2.4,0.7c1.8-0.6,1.4-0.7,2.7-1c1.2-0.4,0.5-0.2-1-0.5
	C358.1,26.4,357.2,27.1,356.2,27.1z"/>
</svg>
