<svg width="264" height="62" viewBox="0 0 264 62" fill="none" xmlns="http://www.w3.org/2000/svg">
<g clip-path="url(#clip0_1_725)">
<path d="M4.73467 0H0V4.73467H4.73467V0Z" fill="#242424"/>
<path d="M4.73467 28.5825H0V33.3172H4.73467V28.5825Z" fill="#242424"/>
<path d="M4.73467 57.1655H0V61.9002H4.73467V57.1655Z" fill="#242424"/>
<path d="M30.6194 0H25.8848V4.73467H30.6194V0Z" fill="#242424"/>
<path d="M30.6194 28.5825H25.8848V33.3172H30.6194V28.5825Z" fill="#242424"/>
<path d="M30.6194 57.1655H25.8848V61.9002H30.6194V57.1655Z" fill="#242424"/>
<path d="M56.4866 0H51.752V4.73467H56.4866V0Z" fill="#242424"/>
<path d="M56.4866 28.5825H51.752V33.3172H56.4866V28.5825Z" fill="#242424"/>
<path d="M56.4866 57.1655H51.752V61.9002H56.4866V57.1655Z" fill="#242424"/>
<path d="M82.3714 0H77.6367V4.73467H82.3714V0Z" fill="#242424"/>
<path d="M82.3714 28.5825H77.6367V33.3172H82.3714V28.5825Z" fill="#242424"/>
<path d="M82.3714 57.1655H77.6367V61.9002H82.3714V57.1655Z" fill="#242424"/>
<path d="M108.256 0H103.521V4.73467H108.256V0Z" fill="#242424"/>
<path d="M108.256 28.5825H103.521V33.3172H108.256V28.5825Z" fill="#242424"/>
<path d="M108.256 57.1655H103.521V61.9002H108.256V57.1655Z" fill="#242424"/>
<path d="M134.123 0H129.389V4.73467H134.123V0Z" fill="#242424"/>
<path d="M134.123 28.5825H129.389V33.3172H134.123V28.5825Z" fill="#242424"/>
<path d="M134.123 57.1655H129.389V61.9002H134.123V57.1655Z" fill="#242424"/>
<path d="M160.008 0H155.273V4.73467H160.008V0Z" fill="#242424"/>
<path d="M160.008 28.5825H155.273V33.3172H160.008V28.5825Z" fill="#242424"/>
<path d="M160.008 57.1655H155.273V61.9002H160.008V57.1655Z" fill="#242424"/>
<path d="M185.895 0H181.16V4.73467H185.895V0Z" fill="#242424"/>
<path d="M185.895 28.5825H181.16V33.3172H185.895V28.5825Z" fill="#242424"/>
<path d="M185.895 57.1655H181.16V61.9002H185.895V57.1655Z" fill="#242424"/>
<path d="M211.78 0H207.045V4.73467H211.78V0Z" fill="#242424"/>
<path d="M211.78 28.5825H207.045V33.3172H211.78V28.5825Z" fill="#242424"/>
<path d="M211.78 57.1655H207.045V61.9002H211.78V57.1655Z" fill="#242424"/>
<path d="M237.645 0H232.91V4.73467H237.645V0Z" fill="#242424"/>
<path d="M237.645 28.5825H232.91V33.3172H237.645V28.5825Z" fill="#242424"/>
<path d="M237.645 57.1655H232.91V61.9002H237.645V57.1655Z" fill="#242424"/>
<path d="M263.532 0H258.797V4.73467H263.532V0Z" fill="#242424"/>
<path d="M263.532 28.5825H258.797V33.3172H263.532V28.5825Z" fill="#242424"/>
<path d="M263.532 57.1655H258.797V61.9002H263.532V57.1655Z" fill="#242424"/>
</g>
<defs>
<clipPath id="clip0_1_725">
<rect width="263.531" height="61.9" fill="white"/>
</clipPath>
</defs>
</svg>
